<svg width="98" height="61" viewBox="0 0 98 61" fill="none" xmlns="http://www.w3.org/2000/svg">
<path d="M0.817061 45.4827C5.02208 45.4608 9.1704 45.7051 13.3362 46.259C13.4103 46.3026 13.454 46.2284 13.5281 46.2721C14.4442 46.4116 14.1606 47.7421 13.3493 47.7639C10.4005 48.0257 7.49541 48.2133 4.54666 48.475C16.032 54.2328 28.3287 59.9688 41.3626 58.8519C54.5141 57.7045 64.9045 49.543 67.3471 36.9061C57.6545 32.0032 50.2782 21.9749 47.9749 11.6369C47.0675 7.41007 46.8187 -0.821117 53.4534 0.286762C59.7043 1.36848 64.1668 10.5811 66.3217 15.7414C68.9739 22.0925 70.0253 29.2986 69.0657 36.0205C69.7767 36.339 70.5619 36.701 71.3165 36.9453C77.9338 39.4403 86.2566 39.5449 91.4474 34.114C98.0864 27.2394 96.2367 16.4694 94.4962 8.05942C94.374 7.58832 95.0806 7.40511 95.2028 7.87622C97.0568 15.7541 98.7406 24.4302 94.527 31.933C91.0985 38.101 84.3766 40.5351 77.5979 39.8416C74.5707 39.5581 71.5826 38.6988 68.8127 37.4687C67.417 44.9322 63.4912 51.6063 56.3418 55.7852C39.5917 65.5957 20.5948 58.0146 4.66445 50.1413L7.4126 53.9537C8.01021 54.8043 6.61436 55.4805 6.09091 54.6735C4.6863 52.6495 3.23808 50.6997 1.75931 48.6321C1.68515 48.5885 1.61098 48.5449 1.46267 48.4576C1.16605 48.2831 1.03083 48.004 1.08753 47.7379C0.803996 47.3715 0.489923 46.8873 0.206389 46.5209C-0.269084 46.1414 0.241263 45.4434 0.817061 45.4827ZM67.8399 32.5047C68.0928 25.966 66.4264 19.2964 63.4689 13.4644C62.0119 10.5113 60.1275 7.60619 57.9072 5.1024C57.0129 4.07733 56.0009 3.08281 54.845 2.50267C51.2288 0.675015 48.9082 3.60198 48.8646 7.06982C48.5943 18.3894 57.637 29.9967 67.6437 35.3837C67.7091 34.424 67.7745 33.4644 67.8399 32.5047Z" fill="white"/>
</svg>
