<svg width="140" height="141" viewBox="0 0 140 141" fill="none" xmlns="http://www.w3.org/2000/svg">
<path d="M72.379 5.40693C72.6024 4.38336 73.0704 3.54002 73.7829 2.87692C74.5086 2.20391 75.4108 1.7369 76.4896 1.47588C77.5684 1.21485 78.7458 1.17249 80.022 1.34879C81.2406 1.51715 82.2786 1.84801 83.136 2.34138C84.0049 2.83633 84.647 3.4464 85.0623 4.17159C85.4793 4.88529 85.6281 5.67326 85.509 6.5355C85.4153 7.2138 85.1391 7.81415 84.6803 8.33657C84.233 8.86057 83.5803 9.34449 82.7223 9.78833C81.8659 10.2207 80.7722 10.6319 79.4412 11.0221L75.9378 12.0846L75.9898 11.0725L85.0606 12.3257L84.627 15.4643L71.5726 13.6608L71.9538 10.9016L77.9456 8.61876C78.8484 8.27484 79.5446 7.9844 80.0342 7.74743C80.5255 7.49897 80.8806 7.26098 81.0994 7.03347C81.3199 6.79446 81.4508 6.5255 81.4921 6.22659C81.535 5.91618 81.4861 5.6341 81.3454 5.38034C81.2047 5.12658 80.9707 4.91265 80.6432 4.73854C80.3273 4.56602 79.9279 4.4464 79.4451 4.37969C78.8127 4.29234 78.2827 4.31284 77.8549 4.44119C77.4402 4.55964 77.1087 4.75402 76.8605 5.02435C76.6237 5.29626 76.4578 5.60723 76.3625 5.95727L72.379 5.40693Z" fill="#FFB703"/>
<path d="M93.2952 4.77377L102.891 8.94296L101.719 11.6413L93.2085 7.94388L94.9113 8.00035L92.4946 11.7715L91.6164 11.39C92.0263 11.0872 92.4999 10.8564 93.0371 10.6975C93.585 10.5433 94.1933 10.4976 94.862 10.5603C95.5459 10.6171 96.2871 10.8188 97.0854 11.1657C98.1073 11.6097 98.9191 12.1585 99.5208 12.8122C100.123 13.4659 100.499 14.1734 100.649 14.9346C100.809 15.7004 100.721 16.4718 100.383 17.2489C100.013 18.1004 99.4532 18.7491 98.7028 19.195C97.9523 19.6408 97.0491 19.8557 95.993 19.8398C94.9477 19.8285 93.8023 19.5523 92.5569 19.0112C91.3541 18.4887 90.3766 17.8552 89.6244 17.1108C88.8829 16.3711 88.3861 15.5921 88.1342 14.7741C87.8975 13.95 87.9121 13.1591 88.178 12.4015L91.8503 13.997C91.7921 14.364 91.9243 14.7441 92.247 15.1374C92.5803 15.5353 93.0929 15.8845 93.7848 16.1851C94.2531 16.3886 94.6777 16.5035 95.0586 16.5298C95.4547 16.55 95.7918 16.4877 96.0699 16.3428C96.3526 16.1872 96.5633 15.9498 96.702 15.6304C96.8315 15.3324 96.862 15.0293 96.7934 14.7211C96.7249 14.4129 96.5533 14.1233 96.2788 13.8522C96.0044 13.5811 95.6329 13.3438 95.1646 13.1403C94.7707 12.9692 94.3956 12.8568 94.0393 12.8033C93.6876 12.739 93.3646 12.7252 93.0703 12.7619C92.7913 12.7925 92.5342 12.8453 92.2992 12.9203L89.0739 11.519L93.2952 4.77377Z" fill="#FFB703"/>
<path d="M103.891 23.6235L109.986 16.0149L112.214 17.7999L106.119 25.4085L103.891 23.6235ZM103.356 18.7783L105.141 16.55L112.749 22.6451L110.964 24.8733L103.356 18.7783Z" fill="#FFB703"/>
<path d="M115.259 36.6651L120.502 32.9831L122.833 36.3025L117.59 39.9845L115.259 36.6651ZM122.432 24.1606L124.993 27.8077L122.846 34.8677L121.846 33.4431L129.205 33.8053L131.767 37.4523L120.746 36.8748L119.202 34.7679L122.432 24.1606Z" fill="#FFB703"/>
<path d="M132.891 55.3369L130.183 56.2427L127.107 47.0471L129.814 46.1413L132.891 55.3369ZM129.339 49.2191L124.291 50.0449L125.456 47.9847L128.61 57.4115L125.539 58.4388L121.612 46.7008L128.112 45.5541L133.994 42.5583L137.894 54.2139L134.823 55.2412L131.697 45.897L133.867 46.8415L129.339 49.2191Z" fill="#FFB703"/>
<path d="M128.69 64.6455L131.927 64.5452L132.204 73.489L128.967 73.5893L128.69 64.6455ZM139.615 71.5351L126.746 77.7859L126.612 73.4532L137.758 68.3705L137.792 69.4667L126.352 65.0663L126.218 60.751L139.449 66.1758L139.615 71.5351Z" fill="#FFB703"/>
<path d="M132.541 84.2442L131.324 88.64C131.188 89.1322 131.195 89.5434 131.344 89.8738C131.491 90.2154 131.776 90.4449 132.201 90.5626C132.626 90.6802 132.989 90.6302 133.29 90.4124C133.588 90.2059 133.806 89.8565 133.942 89.3644L135.312 84.4149L136.636 86.678L125.059 83.4742L126.141 79.5649L138.725 83.0474L136.598 90.7317C136.329 91.7048 135.918 92.5125 135.367 93.1548C134.816 93.7971 134.176 94.24 133.446 94.4836C132.717 94.7272 131.938 94.7345 131.11 94.5054C130.305 94.2825 129.646 93.8775 129.134 93.2903C128.634 92.7062 128.312 91.997 128.17 91.1628C128.038 90.3317 128.107 89.4296 128.377 88.4565L129.756 83.4734L132.541 84.2442ZM130.818 85.5738L129.616 89.9193L122.529 92.6182L123.768 88.1385L130.818 85.5738Z" fill="#FFB703"/>
<path d="M125.103 97.1327L122.917 100.611C122.637 100.49 122.334 100.47 122.007 100.553C121.685 100.652 121.355 100.849 121.019 101.145C120.692 101.447 120.374 101.843 120.065 102.334C119.639 103.012 119.387 103.587 119.31 104.06C119.226 104.542 119.346 104.885 119.67 105.088C119.896 105.231 120.146 105.237 120.42 105.107C120.703 104.983 121.07 104.618 121.52 104.01L122.906 102.166C124.024 100.649 125.094 99.7105 126.114 99.3515C127.139 99.0085 128.138 99.1427 129.11 99.7542C129.906 100.255 130.424 100.902 130.664 101.698C130.915 102.499 130.918 103.399 130.674 104.397C130.43 105.396 129.956 106.455 129.252 107.575C128.573 108.656 127.818 109.518 126.989 110.162C126.153 110.815 125.301 111.212 124.432 111.351C123.566 111.506 122.75 111.377 121.982 110.963L124.169 107.484C124.41 107.581 124.667 107.585 124.942 107.497C125.22 107.426 125.508 107.25 125.807 106.972C126.105 106.693 126.4 106.323 126.69 105.861C127.073 105.252 127.305 104.72 127.386 104.263C127.461 103.817 127.351 103.501 127.056 103.316C126.84 103.18 126.598 103.172 126.331 103.292C126.058 103.422 125.717 103.756 125.31 104.295L123.79 106.321C123.044 107.333 122.34 108.082 121.676 108.57C121.017 109.074 120.378 109.338 119.761 109.361C119.153 109.39 118.525 109.201 117.876 108.793C117.09 108.299 116.546 107.627 116.243 106.779C115.95 105.937 115.905 104.983 116.108 103.918C116.315 102.87 116.777 101.775 117.493 100.636C118.229 99.4663 119.036 98.5414 119.916 97.861C120.796 97.1805 121.684 96.7719 122.579 96.6352C123.483 96.5047 124.325 96.6705 125.103 97.1327Z" fill="#FFB703"/>
<path d="M100.492 117.816C101.813 116.974 103.126 116.474 104.43 116.318C105.724 116.167 106.924 116.345 108.031 116.851C109.128 117.363 110.045 118.196 110.781 119.351C111.517 120.506 111.885 121.689 111.886 122.899C111.877 124.116 111.531 125.279 110.848 126.389C110.155 127.504 109.149 128.483 107.827 129.325C106.506 130.168 105.198 130.664 103.904 130.814C102.6 130.971 101.4 130.793 100.303 130.281C99.1961 129.776 98.2747 128.945 97.5386 127.79C96.8026 126.635 96.4391 125.45 96.448 124.233C96.4472 123.022 96.7931 121.859 97.4857 120.743C98.1686 119.634 99.1706 118.658 100.492 117.816ZM102.429 120.855C101.773 121.273 101.279 121.739 100.946 122.254C100.61 122.784 100.443 123.332 100.444 123.895C100.452 124.468 100.633 125.034 100.989 125.592C101.344 126.149 101.777 126.548 102.287 126.787C102.804 127.036 103.37 127.115 103.987 127.025C104.6 126.951 105.235 126.704 105.891 126.287C106.546 125.869 107.042 125.394 107.378 124.864C107.711 124.349 107.873 123.805 107.866 123.232C107.865 122.668 107.686 122.108 107.331 121.55C106.975 120.992 106.539 120.588 106.023 120.34C105.512 120.1 104.951 120.018 104.337 120.092C103.721 120.183 103.084 120.437 102.429 120.855Z" fill="#FFB703"/>
<path d="M90.1626 131.832L80.9612 134.284L80.0871 131.003L89.2885 128.552L90.1626 131.832ZM81.9863 139.415L81.1122 136.135L90.4482 133.647L89.0943 135.936L86.1269 124.8L90.0464 123.756L93.4082 136.372L81.9863 139.415Z" fill="#FFB703"/>
<path d="M55.6637 133.751L56.0479 130.922L65.6563 132.227L65.2722 135.056L55.6637 133.751ZM62.7214 133.269L64.2115 128.376L65.5447 130.332L55.6947 128.994L56.1304 125.786L68.3954 127.451L66.551 133.789L66.6387 140.389L54.4599 138.735L54.8956 135.526L64.6593 136.852L62.8529 138.381L62.7214 133.269Z" fill="#FFB703"/>
<path d="M43.006 126.586L41.9849 128.837L39.3703 118.839L43.9204 120.903L45.4142 127.429L43.5751 126.595L49.5011 123.434L53.972 125.461L44.696 130.067L45.717 127.815L48.262 137.208L43.6484 135.116L42.2806 129.239L44.1197 130.073L38.8604 132.944L34.3103 130.881L43.006 126.586Z" fill="#FFB703"/>
<path d="M22.9363 121.967C22.0839 121.214 21.4801 120.425 21.1248 119.6C20.7609 118.767 20.6485 117.948 20.7878 117.142C20.9193 116.344 21.2963 115.593 21.9187 114.889C22.5334 114.193 23.2322 113.726 24.0151 113.489C24.798 113.251 25.6249 113.262 26.496 113.52C27.3585 113.771 28.2158 114.273 29.0682 115.026L33.2561 118.726L31.1353 121.126L27.1431 117.599C26.7604 117.261 26.3802 117.096 26.0024 117.103C25.6159 117.102 25.2766 117.267 24.9846 117.597C24.6773 117.945 24.5516 118.306 24.6077 118.681C24.6551 119.048 24.8701 119.401 25.2528 119.739L28.9841 123.035L26.3924 123.208L34.138 114.441L37.1778 117.127L28.5332 126.911L22.9363 121.967Z" fill="#FFB703"/>
<path d="M12.5211 100.597L14.9266 99.0588L20.1496 107.229L17.7442 108.766L12.5211 100.597ZM17.4559 105.665L22.1502 103.635L21.5221 105.917L16.1678 97.5421L18.8959 95.798L25.563 106.226L19.5377 108.921L14.5625 113.259L7.94228 102.904L10.6704 101.16L15.9778 109.462L13.6431 109.074L17.4559 105.665Z" fill="#FFB703"/>
<path d="M9.53269 92.0816L8.24194 87.7069C8.09743 87.2171 7.87445 86.8715 7.573 86.6701C7.26826 86.4575 6.9044 86.4136 6.48141 86.5384C6.05842 86.6632 5.77666 86.8976 5.63614 87.2415C5.49234 87.5744 5.49269 87.9857 5.6372 88.4755L7.09053 93.4011L4.76996 92.18L16.2909 88.7807L17.4388 92.6711L4.91602 96.366L2.65967 88.7187C2.37393 87.7503 2.29522 86.8478 2.42352 86.0114C2.55183 85.1749 2.86133 84.4604 3.35204 83.8679C3.84274 83.2754 4.49995 82.8576 5.32368 82.6146C6.12513 82.3781 6.8983 82.3738 7.64318 82.6018C8.37692 82.833 9.02472 83.265 9.58656 83.8979C10.1373 84.534 10.5555 85.3363 10.8412 86.3047L12.3044 91.2637L9.53269 92.0816ZM10.2923 90.0424L9.01635 85.7178L13.606 79.6808L14.9213 84.1389L10.2923 90.0424Z" fill="#FFB703"/>
<path d="M0.670898 78.2021L0.344125 74.1591L13.3582 73.1073L13.685 77.1503L0.670898 78.2021Z" fill="#FFB703"/>
<path d="M6.45303 57.5466L9.2891 57.8751L8.1735 67.5073L5.33744 67.1789L6.45303 57.5466ZM7.07393 64.5935L11.9948 65.9871L10.0659 67.3585L11.2096 57.4841L14.4261 57.8567L13.002 70.1521L6.62929 68.4326L0.0322266 68.6499L1.44625 56.441L4.66276 56.8135L3.52914 66.6014L1.9648 64.8254L7.07393 64.5935Z" fill="#FFB703"/>
<path d="M17.4811 42.1229L17.2256 43.2868L7.72893 39.0218L9.34078 35.4328L21.2513 40.7818L19.1687 45.419L6.79786 47.5539L7.04624 46.4059L16.7652 50.7708L15.1605 54.3439L3.25 48.9949L5.39675 44.2148L17.4811 42.1229Z" fill="#FFB703"/>
<path d="M29.8198 22.5187C30.5682 23.4166 31.032 24.4131 31.2113 25.508C31.3986 26.5946 31.2911 27.706 30.8887 28.8424C30.4943 29.9703 29.8111 31.049 28.8391 32.0787C27.7875 33.1927 26.6606 33.9722 25.4584 34.4174C24.2561 34.8625 23.0646 34.9666 21.8837 34.7297C20.7029 34.4928 19.6145 33.9043 18.6187 32.9642C17.6228 32.0242 16.9726 30.9715 16.6681 29.8063C16.3636 28.641 16.399 27.4454 16.7741 26.2196C17.1493 24.9937 17.8627 23.8237 18.9143 22.7097C19.8863 21.6801 20.9239 20.936 22.0272 20.4772C23.1385 20.0101 24.2419 19.8387 25.3374 19.9632C26.4325 20.0712 27.454 20.4769 28.402 21.1802L25.6056 24.1425C25.1631 23.8843 24.7077 23.7497 24.2394 23.7385C23.7706 23.711 23.3014 23.8107 22.8318 24.0377C22.3537 24.2567 21.8876 24.6068 21.4335 25.0878C20.9236 25.6279 20.5825 26.1837 20.4101 26.7552C20.2378 27.3266 20.2377 27.8931 20.4099 28.4546C20.5736 29.0082 20.9086 29.524 21.415 30.002C21.9214 30.48 22.4556 30.7848 23.0176 30.9164C23.5797 31.048 24.1453 31.0152 24.7143 30.8182C25.2749 30.6133 25.8101 30.2407 26.32 29.7006C26.7741 29.2195 27.1051 28.742 27.3131 28.2681C27.5127 27.7861 27.5852 27.312 27.5308 26.8456C27.4842 26.3707 27.3151 25.9159 27.0235 25.4809L29.8198 22.5187Z" fill="#FFB703"/>
<path d="M43.0032 11.6231L44.4093 14.1078L35.9704 18.8837L34.5642 16.399L43.0032 11.6231ZM37.6763 16.2781L39.4508 21.0748L37.206 20.3248L45.8571 15.4289L47.4519 18.2469L36.6798 24.3432L34.3128 18.1816L30.249 12.9802L40.9454 6.92675L42.5402 9.74478L33.9649 14.5978L34.4776 12.2874L37.6763 16.2781Z" fill="#FFB703"/>
<path d="M58.8694 15.2464C58.4701 15.3213 58.088 15.2984 57.723 15.1779C57.3558 15.046 57.0443 14.8328 56.7884 14.5383C56.5439 14.2417 56.3842 13.8938 56.3094 13.4946C56.2324 13.0839 56.2552 12.7018 56.3779 12.3482C56.5098 11.981 56.7241 11.6752 57.0207 11.4307C57.3151 11.1747 57.662 11.0094 58.0612 10.9345C58.4719 10.8576 58.8551 10.8861 59.2108 11.0202C59.5758 11.1407 59.8806 11.3492 60.1251 11.6458C60.3789 11.9289 60.5443 12.2757 60.6213 12.6864C60.6961 13.0856 60.6675 13.4688 60.5356 13.836C60.4151 14.201 60.2076 14.5115 59.9132 14.7674C59.628 15.0098 59.2801 15.1695 58.8694 15.2464Z" fill="#FFB703"/>
</svg>
