<svg width="946" height="616" viewBox="0 0 946 616" fill="none" xmlns="http://www.w3.org/2000/svg">
<g opacity="0.3">
<line x1="0.0180664" y1="0.861816" x2="945.019" y2="0.861816" stroke="white" stroke-opacity="0.1"/>
<line x1="0.0180664" y1="28.8618" x2="945.019" y2="28.8618" stroke="url(#paint0_linear_163_24957)"/>
<line x1="0.0180664" y1="84.8618" x2="945.019" y2="84.8618" stroke="url(#paint1_linear_163_24957)"/>
<line x1="0.0180664" y1="141.862" x2="945.019" y2="141.862" stroke="url(#paint2_linear_163_24957)"/>
<line x1="0.0180664" y1="198.862" x2="945.019" y2="198.862" stroke="url(#paint3_linear_163_24957)"/>
<line x1="0.0180664" y1="255.862" x2="945.019" y2="255.862" stroke="url(#paint4_linear_163_24957)"/>
<line x1="0.0180664" y1="311.862" x2="945.019" y2="311.862" stroke="url(#paint5_linear_163_24957)"/>
<line x1="0.0180664" y1="368.862" x2="945.019" y2="368.862" stroke="url(#paint6_linear_163_24957)"/>
<line x1="0.0180664" y1="425.862" x2="945.019" y2="425.862" stroke="url(#paint7_linear_163_24957)"/>
<line x1="0.0180664" y1="482.862" x2="945.019" y2="482.862" stroke="url(#paint8_linear_163_24957)"/>
<line x1="0.0180664" y1="539.862" x2="945.019" y2="539.862" stroke="url(#paint9_linear_163_24957)"/>
<line x1="0.0180664" y1="595.862" x2="945.019" y2="595.862" stroke="url(#paint10_linear_163_24957)"/>
<line x1="0.0180664" y1="56.8618" x2="945.019" y2="56.8618" stroke="url(#paint11_linear_163_24957)"/>
<line x1="0.0180664" y1="112.862" x2="945.019" y2="112.862" stroke="url(#paint12_linear_163_24957)"/>
<line x1="0.0180664" y1="169.862" x2="945.019" y2="169.862" stroke="url(#paint13_linear_163_24957)"/>
<line x1="0.0180664" y1="226.862" x2="945.019" y2="226.862" stroke="url(#paint14_linear_163_24957)"/>
<line x1="0.0180664" y1="283.862" x2="945.019" y2="283.862" stroke="url(#paint15_linear_163_24957)"/>
<line x1="0.0180664" y1="339.862" x2="945.019" y2="339.862" stroke="url(#paint16_linear_163_24957)"/>
<line x1="0.0180664" y1="396.862" x2="945.019" y2="396.862" stroke="url(#paint17_linear_163_24957)"/>
<line x1="0.0180664" y1="453.862" x2="945.019" y2="453.862" stroke="url(#paint18_linear_163_24957)"/>
<line x1="0.0180664" y1="510.862" x2="945.019" y2="510.862" stroke="url(#paint19_linear_163_24957)"/>
<line x1="0.0180664" y1="567.862" x2="945.019" y2="567.862" stroke="url(#paint20_linear_163_24957)"/>
<line x1="28.0186" y1="614.953" x2="28.0186" y2="0.909424" stroke="#505050"/>
<line x1="57.0186" y1="614.953" x2="57.0186" y2="0.909424" stroke="#505050"/>
<line x1="85.0186" y1="614.953" x2="85.0186" y2="0.909424" stroke="#505050"/>
<line x1="114.019" y1="614.953" x2="114.019" y2="0.909424" stroke="#505050"/>
<line x1="142.019" y1="614.953" x2="142.019" y2="0.909424" stroke="#505050"/>
<line x1="171.019" y1="614.953" x2="171.019" y2="0.909424" stroke="#505050"/>
<line x1="200.019" y1="614.953" x2="200.019" y2="0.909424" stroke="#505050"/>
<line x1="228.019" y1="614.953" x2="228.019" y2="0.909424" stroke="#505050"/>
<line x1="257.019" y1="614.953" x2="257.019" y2="0.909424" stroke="#505050"/>
<line x1="285.019" y1="614.953" x2="285.019" y2="0.909424" stroke="#505050"/>
<line x1="314.019" y1="614.953" x2="314.019" y2="0.909424" stroke="#505050"/>
<line x1="342.019" y1="614.953" x2="342.019" y2="0.909424" stroke="#505050"/>
<line x1="371.019" y1="614.953" x2="371.019" y2="0.909424" stroke="#505050"/>
<line x1="400.019" y1="614.953" x2="400.019" y2="0.909424" stroke="#505050"/>
<line x1="428.019" y1="614.953" x2="428.019" y2="0.909424" stroke="#505050"/>
<line x1="457.019" y1="614.953" x2="457.019" y2="0.909424" stroke="#505050"/>
<line x1="485.019" y1="614.953" x2="485.019" y2="0.909424" stroke="#505050"/>
<line x1="514.019" y1="614.953" x2="514.019" y2="0.909424" stroke="#454545"/>
<line x1="543.019" y1="614.953" x2="543.019" y2="0.909424" stroke="#3D3D3D"/>
<line x1="571.019" y1="614.953" x2="571.019" y2="0.909424" stroke="#393939"/>
<line x1="600.019" y1="614.953" x2="600.019" y2="0.909424" stroke="#3A3A3A"/>
<line x1="628.019" y1="614.953" x2="628.019" y2="0.909424" stroke="#343434"/>
<line x1="657.019" y1="614.953" x2="657.019" y2="0.909424" stroke="#353535"/>
<line x1="685.019" y1="614.953" x2="685.019" y2="0.909424" stroke="#333333"/>
<line x1="714.019" y1="614.953" x2="714.019" y2="0.909424" stroke="#2E2E2E"/>
<line x1="743.019" y1="614.953" x2="743.019" y2="0.909424" stroke="#2C2C2C"/>
<line x1="771.019" y1="614.953" x2="771.019" y2="0.909424" stroke="#252525"/>
<line x1="800.019" y1="614.953" x2="800.019" y2="0.909424" stroke="#252525"/>
<line x1="828.019" y1="614.953" x2="828.019" y2="0.909424" stroke="#252525"/>
<line x1="857.019" y1="614.953" x2="857.019" y2="0.909424" stroke="#252525"/>
<line x1="886.019" y1="614.953" x2="886.019" y2="0.909424" stroke="#252525"/>
<line x1="886.019" y1="614.953" x2="886.019" y2="0.909424" stroke="#242424"/>
<line x1="915.019" y1="614.953" x2="915.019" y2="0.909424" stroke="#242424"/>
</g>
<defs>
<linearGradient id="paint0_linear_163_24957" x1="0.0180664" y1="29.8618" x2="945.019" y2="29.8618" gradientUnits="userSpaceOnUse">
<stop offset="0.305" stop-color="#515050"/>
<stop offset="1" stop-color="#1E1E1E"/>
</linearGradient>
<linearGradient id="paint1_linear_163_24957" x1="0.0180664" y1="85.8618" x2="945.019" y2="85.8618" gradientUnits="userSpaceOnUse">
<stop offset="0.305" stop-color="#515050"/>
<stop offset="1" stop-color="#1E1E1E"/>
</linearGradient>
<linearGradient id="paint2_linear_163_24957" x1="0.0180664" y1="142.862" x2="945.019" y2="142.862" gradientUnits="userSpaceOnUse">
<stop offset="0.305" stop-color="#515050"/>
<stop offset="1" stop-color="#1E1E1E"/>
</linearGradient>
<linearGradient id="paint3_linear_163_24957" x1="0.0180664" y1="199.862" x2="945.019" y2="199.862" gradientUnits="userSpaceOnUse">
<stop offset="0.305" stop-color="#515050"/>
<stop offset="1" stop-color="#1E1E1E"/>
</linearGradient>
<linearGradient id="paint4_linear_163_24957" x1="0.0180664" y1="256.862" x2="945.019" y2="256.862" gradientUnits="userSpaceOnUse">
<stop offset="0.305" stop-color="#515050"/>
<stop offset="1" stop-color="#1E1E1E"/>
</linearGradient>
<linearGradient id="paint5_linear_163_24957" x1="0.0180664" y1="312.862" x2="945.019" y2="312.862" gradientUnits="userSpaceOnUse">
<stop offset="0.305" stop-color="#515050"/>
<stop offset="1" stop-color="#1E1E1E"/>
</linearGradient>
<linearGradient id="paint6_linear_163_24957" x1="0.0180664" y1="369.862" x2="945.019" y2="369.862" gradientUnits="userSpaceOnUse">
<stop offset="0.305" stop-color="#515050"/>
<stop offset="1" stop-color="#1E1E1E"/>
</linearGradient>
<linearGradient id="paint7_linear_163_24957" x1="0.0180664" y1="426.862" x2="945.019" y2="426.862" gradientUnits="userSpaceOnUse">
<stop offset="0.305" stop-color="#515050"/>
<stop offset="1" stop-color="#1E1E1E"/>
</linearGradient>
<linearGradient id="paint8_linear_163_24957" x1="0.0180664" y1="483.862" x2="945.019" y2="483.862" gradientUnits="userSpaceOnUse">
<stop offset="0.305" stop-color="#515050"/>
<stop offset="1" stop-color="#1E1E1E"/>
</linearGradient>
<linearGradient id="paint9_linear_163_24957" x1="0.0180664" y1="540.862" x2="945.019" y2="540.862" gradientUnits="userSpaceOnUse">
<stop offset="0.305" stop-color="#515050"/>
<stop offset="1" stop-color="#1E1E1E"/>
</linearGradient>
<linearGradient id="paint10_linear_163_24957" x1="0.0180664" y1="596.862" x2="945.019" y2="596.862" gradientUnits="userSpaceOnUse">
<stop offset="0.305" stop-color="#515050"/>
<stop offset="1" stop-color="#1E1E1E"/>
</linearGradient>
<linearGradient id="paint11_linear_163_24957" x1="0.0180664" y1="57.8618" x2="945.019" y2="57.8618" gradientUnits="userSpaceOnUse">
<stop offset="0.305" stop-color="#515050"/>
<stop offset="1" stop-color="#1E1E1E"/>
</linearGradient>
<linearGradient id="paint12_linear_163_24957" x1="0.0180664" y1="113.862" x2="945.019" y2="113.862" gradientUnits="userSpaceOnUse">
<stop offset="0.305" stop-color="#515050"/>
<stop offset="1" stop-color="#1E1E1E"/>
</linearGradient>
<linearGradient id="paint13_linear_163_24957" x1="0.0180664" y1="170.862" x2="945.019" y2="170.862" gradientUnits="userSpaceOnUse">
<stop offset="0.305" stop-color="#515050"/>
<stop offset="1" stop-color="#1E1E1E"/>
</linearGradient>
<linearGradient id="paint14_linear_163_24957" x1="0.0180664" y1="227.862" x2="945.019" y2="227.862" gradientUnits="userSpaceOnUse">
<stop offset="0.305" stop-color="#515050"/>
<stop offset="1" stop-color="#1E1E1E"/>
</linearGradient>
<linearGradient id="paint15_linear_163_24957" x1="0.0180664" y1="284.862" x2="945.019" y2="284.862" gradientUnits="userSpaceOnUse">
<stop offset="0.305" stop-color="#515050"/>
<stop offset="1" stop-color="#1E1E1E"/>
</linearGradient>
<linearGradient id="paint16_linear_163_24957" x1="0.0180664" y1="340.862" x2="945.019" y2="340.862" gradientUnits="userSpaceOnUse">
<stop offset="0.305" stop-color="#515050"/>
<stop offset="1" stop-color="#1E1E1E"/>
</linearGradient>
<linearGradient id="paint17_linear_163_24957" x1="0.0180664" y1="397.862" x2="945.019" y2="397.862" gradientUnits="userSpaceOnUse">
<stop offset="0.305" stop-color="#515050"/>
<stop offset="1" stop-color="#1E1E1E"/>
</linearGradient>
<linearGradient id="paint18_linear_163_24957" x1="0.0180664" y1="454.862" x2="945.019" y2="454.862" gradientUnits="userSpaceOnUse">
<stop offset="0.305" stop-color="#515050"/>
<stop offset="1" stop-color="#1E1E1E"/>
</linearGradient>
<linearGradient id="paint19_linear_163_24957" x1="0.0180664" y1="511.862" x2="945.019" y2="511.862" gradientUnits="userSpaceOnUse">
<stop offset="0.305" stop-color="#515050"/>
<stop offset="1" stop-color="#1E1E1E"/>
</linearGradient>
<linearGradient id="paint20_linear_163_24957" x1="0.0180664" y1="568.862" x2="945.019" y2="568.862" gradientUnits="userSpaceOnUse">
<stop offset="0.305" stop-color="#515050"/>
<stop offset="1" stop-color="#1E1E1E"/>
</linearGradient>
</defs>
</svg>
