<svg width="221" height="89" viewBox="0 0 221 89" fill="none" xmlns="http://www.w3.org/2000/svg">
<path d="M40.6673 58.5489C40.6673 53.7753 36.784 49.8906 32.0092 49.8906C27.2356 49.8906 23.3516 53.7753 23.3516 58.5489V87.2923C26.1048 88.0784 29.0071 88.5089 32.0092 88.5089C35.0124 88.5089 37.914 88.0784 40.6673 87.2923V58.5489ZM36.0842 83.6166C34.7557 83.8184 33.393 83.9244 32.0092 83.9244C30.625 83.9244 29.2643 83.8184 27.9347 83.6166V58.5489C27.9347 56.3023 29.7629 54.4758 32.0092 54.4758C34.2567 54.4758 36.0842 56.3026 36.0842 58.5489V83.6166Z" fill="#FFB703"/>
<path d="M32.0069 0L0.429688 15.4308V56.9167C0.429688 68.684 6.90394 78.9613 16.4732 84.3926V46.1476C16.4732 37.5819 23.4414 30.6132 32.0069 30.6132C40.5722 30.6132 47.5417 37.5819 47.5417 46.1476V84.3926C57.1105 78.9611 63.5845 68.6838 63.5845 56.9167V15.4308L32.0069 0ZM59.0016 56.9165C59.0016 63.814 56.3969 70.1121 52.1262 74.8884V46.1476C52.1262 35.0548 43.1008 26.0287 32.0069 26.0287C20.9141 26.0287 11.8894 35.0546 11.8894 46.1476V74.8884C7.61669 70.1121 5.01352 63.814 5.01352 56.9165V18.2925L32.0069 5.10212L59.0016 18.2925V56.9165Z" fill="#FFB703"/>
<path d="M204.542 61.9218C201.39 61.9218 198.622 61.3823 196.237 60.3034C193.852 59.2245 191.992 57.7197 190.658 55.789C189.323 53.8299 188.656 51.5727 188.656 49.0173C188.656 46.4052 189.323 44.1338 190.658 42.2031C191.992 40.244 193.852 38.7392 196.237 37.6887C198.622 36.6098 201.405 36.0703 204.585 36.0703C207.736 36.0703 210.504 36.6098 212.889 37.6887C215.274 38.7392 217.12 40.244 218.426 42.2031C219.76 44.1338 220.428 46.4052 220.428 49.0173C220.428 51.5727 219.76 53.8299 218.426 55.789C217.12 57.7197 215.274 59.2245 212.889 60.3034C210.504 61.3823 207.722 61.9218 204.542 61.9218ZM204.585 54.7668C205.862 54.7668 206.941 54.5397 207.821 54.0854C208.73 53.6311 209.411 52.9781 209.866 52.1263C210.348 51.2462 210.59 50.2098 210.59 49.0173C210.59 47.7965 210.348 46.7601 209.866 45.9084C209.411 45.0282 208.73 44.361 207.821 43.9067C206.941 43.4524 205.862 43.2252 204.585 43.2252C203.307 43.2252 202.214 43.4524 201.305 43.9067C200.397 44.361 199.701 45.0282 199.218 45.9084C198.764 46.7601 198.537 47.7823 198.537 48.9748C198.537 50.1956 198.764 51.2462 199.218 52.1263C199.701 52.9781 200.397 53.6311 201.305 54.0854C202.214 54.5397 203.307 54.7668 204.585 54.7668Z" fill="#FFB703"/>
<path d="M157.258 61.2003L168.416 47.6145V50.0846L157.897 36.7969H168.629L175.06 44.761H172.419L178.808 36.7969H189.498L178.552 50.2124L177.999 46.6775L190.136 61.2003H179.063L172.164 52.7251H174.975L168.118 61.2003H157.258Z" fill="#FFB703"/>
<path d="M145.842 36.3297L150.74 37.3518L155.595 36.3297V61.2016H145.842V36.3297ZM150.74 34.7113C149.093 34.7113 147.758 34.2996 146.736 33.4762C145.714 32.6528 145.203 31.5455 145.203 30.1543C145.203 28.7347 145.714 27.6132 146.736 26.7898C147.758 25.9664 149.093 25.5547 150.74 25.5547C152.443 25.5547 153.792 25.9664 154.786 26.7898C155.808 27.6132 156.319 28.7347 156.319 30.1543C156.319 31.5455 155.808 32.6528 154.786 33.4762C153.792 34.2996 152.443 34.7113 150.74 34.7113Z" fill="white"/>
<path d="M120.445 36.7943H130.411L131.859 45.4399V61.1978H122.106V45.1418L120.445 36.7943ZM142.975 36.3258V44.6307C142.066 44.4603 141.229 44.3468 140.462 44.29C139.724 44.2048 139.042 44.1622 138.418 44.1622C137.254 44.1622 136.175 44.3893 135.181 44.8436C134.187 45.2695 133.378 46.0219 132.754 47.1008C132.157 48.1514 131.859 49.6136 131.859 51.4875L130.07 49.2729C130.326 47.5125 130.667 45.8516 131.093 44.29C131.547 42.7 132.157 41.2946 132.924 40.0737C133.69 38.8244 134.642 37.8449 135.777 37.135C136.941 36.4252 138.361 36.0703 140.036 36.0703C140.49 36.0703 140.959 36.0987 141.442 36.1555C141.924 36.1839 142.435 36.2407 142.975 36.3258Z" fill="white"/>
<path d="M106.741 45.6198L107.551 43.831C109.964 43.8878 111.98 44.2711 113.598 44.9809C115.217 45.6624 116.423 46.6135 117.218 47.8344C118.013 49.0553 118.411 50.4891 118.411 52.1359C118.411 53.8678 118.013 55.4294 117.218 56.8206C116.452 58.1835 115.273 59.2624 113.683 60.0574C112.093 60.824 110.12 61.2073 107.764 61.2073H83.4453L85.8729 44.8106L83.4453 29.2656H106.869C109.822 29.2656 112.122 29.9612 113.769 31.3525C115.444 32.7153 116.281 34.6176 116.281 37.0594C116.281 38.4222 115.969 39.7141 115.344 40.935C114.748 42.1559 113.74 43.1922 112.321 44.044C110.929 44.8674 109.07 45.3926 106.741 45.6198ZM93.1556 58.9927L89.3652 54.4783H104.825C105.932 54.4783 106.798 54.2085 107.423 53.6691C108.048 53.1012 108.36 52.3204 108.36 51.3267C108.36 50.3897 108.033 49.6231 107.38 49.0269C106.727 48.4022 105.776 48.0899 104.527 48.0899H91.665V41.5312H103.121C104.002 41.5312 104.74 41.2615 105.336 40.722C105.932 40.1826 106.23 39.4728 106.23 38.5926C106.23 37.8544 105.961 37.2439 105.421 36.7613C104.91 36.2502 104.172 35.9947 103.207 35.9947H89.4078L93.1556 31.4802L95.3276 44.8106L93.1556 58.9927Z" fill="white"/>
</svg>
