<svg width="26" height="27" viewBox="0 0 26 27" fill="none" xmlns="http://www.w3.org/2000/svg">
<path d="M23.7148 4.28174H2.28516C1.02258 4.28174 0 5.31067 0 6.56689V20.2778C0 21.5415 1.0301 22.563 2.28516 22.563H23.7148C24.9669 22.563 26 21.5458 26 20.2778V6.56689C26 5.3129 24.9815 4.28174 23.7148 4.28174ZM23.3948 5.80518C22.9279 6.26957 14.8933 14.2619 14.6159 14.5379C14.1842 14.9695 13.6104 15.2072 13 15.2072C12.3896 15.2072 11.8158 14.9695 11.3827 14.5365C11.1961 14.3508 3.25015 6.44675 2.60518 5.80518H23.3948ZM1.52344 19.9678V6.87793L8.10662 13.4264L1.52344 19.9678ZM2.60614 21.0396L9.18673 14.5008L10.3069 15.6151C11.0263 16.3345 11.9827 16.7306 13 16.7306C14.0173 16.7306 14.9737 16.3345 15.6917 15.6165L16.8133 14.5008L23.3939 21.0396H2.60614ZM24.4766 19.9678L17.8934 13.4264L24.4766 6.87793V19.9678Z" fill="#FFB703"/>
</svg>
