<svg width="91" height="91" viewBox="0 0 91 91" fill="none" xmlns="http://www.w3.org/2000/svg">
<path d="M86.679 60.7608C89.3476 58.0641 90.475 54.4117 89.8538 50.4762L87.0392 32.6435C86.6625 30.2739 84.5745 29.2229 82.7035 29.412C80.8628 29.5968 79.0482 31.0202 79.141 33.3815L79.5777 44.881C79.2846 44.6921 78.9685 44.5307 78.6317 44.4007C76.7351 43.669 74.6701 44.1086 73.2423 45.5484L63.761 55.1094L62.11 55.5551C60.1674 56.0786 58.5976 56.9931 57.1695 58.4331L53.1906 62.4456C51.0849 64.5688 50.0001 67.2073 49.9662 70.2869L49.8473 80.2977H47.4274C46.8361 80.2977 46.3568 80.7811 46.3568 81.3773V89.7546C46.3568 90.3509 46.8361 90.8342 47.4274 90.8342H73.5284C74.1197 90.8342 74.5991 90.3509 74.5991 89.7546V81.3773C74.5991 80.7811 74.1197 80.2977 73.5284 80.2977H71.0545L70.9564 78.8757C70.8573 77.4759 71.3079 76.2608 72.2958 75.2645L86.6786 60.7606L86.679 60.7608ZM72.458 88.6749H48.4982V82.4572H70.0539C70.0539 82.4572 70.0544 82.4572 70.0548 82.4572H70.0573H72.458V88.6749ZM70.7821 73.7377C69.3558 75.1761 68.6775 77.006 68.8207 79.0275L68.9082 80.2979H51.9889L52.1076 70.3119C52.1355 67.7805 52.985 65.707 54.7048 63.9727L58.6837 59.9603C59.8504 58.7838 61.0776 58.0688 62.6633 57.6415L64.592 57.1208C64.7736 57.0718 64.9392 56.9753 65.0722 56.8413L74.7564 47.0756C75.7388 46.0847 77.0073 46.086 77.8661 46.4177C78.9717 46.8445 79.67 47.8078 79.7339 48.9946V48.9955V48.9959C79.78 49.8355 79.4718 50.6547 78.888 51.2443L78.8865 51.2457L70.63 59.5719C70.2119 59.9934 70.2119 60.6771 70.63 61.0988C70.8389 61.3097 71.1131 61.4151 71.387 61.4151C71.661 61.4151 71.9351 61.3097 72.144 61.0988L80.399 52.7744C80.399 52.7744 80.4001 52.7733 80.4008 52.7727C81.4092 51.7556 81.9445 50.3464 81.8727 48.9033C81.8727 48.9004 81.8728 48.8977 81.8727 48.8949L81.2805 33.2978C81.2349 32.1418 82.1327 31.6397 82.9154 31.561C83.7248 31.48 84.7367 31.8041 84.9243 32.9844L87.7389 50.8159C88.2569 54.0978 87.3663 57.0094 85.1638 59.2349L70.782 73.7379L70.7821 73.7377ZM42.6135 80.2979H40.1936L40.0749 70.2879C40.0409 67.2075 38.956 64.569 36.8505 62.4457L32.8716 58.4333C31.4436 56.9933 29.8737 56.0788 27.9316 55.5553L26.28 55.1096L16.7989 45.5484C15.3709 44.1082 13.306 43.6688 11.4095 44.4007C11.0727 44.5307 10.7565 44.6921 10.4636 44.881L10.9002 33.383C10.9931 31.0202 9.17848 29.5968 7.3378 29.412C5.468 29.224 3.37873 30.2739 3.00191 32.6448L0.187226 50.4762C-0.434074 54.4117 0.693516 58.0643 3.36301 60.7615L17.7449 75.2645C18.7328 76.2608 19.1836 77.4757 19.0841 78.8777L18.9862 80.2977H16.5125C15.9212 80.2977 15.4418 80.7811 15.4418 81.3773V89.7546C15.4418 90.3509 15.9212 90.8342 16.5125 90.8342H42.6135C43.2048 90.8342 43.6841 90.3509 43.6841 89.7546V81.3773C43.6841 80.7811 43.2048 80.2977 42.6135 80.2977V80.2979ZM19.2589 73.7377L4.87778 59.2354C2.67457 57.0092 1.78378 54.0977 2.30186 50.8157L5.11637 32.9853C5.30406 31.8038 6.31593 31.4794 7.12546 31.5606C7.90802 31.6393 8.80595 32.1413 8.76041 33.2989L8.16822 48.8945C8.16822 48.8974 8.1684 48.9001 8.16822 48.9028C8.09607 50.346 8.63147 51.7552 9.64012 52.7724L17.8967 61.0985C18.1058 61.3094 18.3797 61.4147 18.6537 61.4147C18.9276 61.4147 19.2018 61.3094 19.4107 61.0985C19.8288 60.6769 19.8288 59.9933 19.4107 59.5715L11.1542 51.2454C10.5695 50.6558 10.2605 49.8356 10.3068 48.9955V48.995C10.3068 48.9946 10.3068 48.9944 10.3068 48.9941C10.3707 47.8073 11.069 46.844 12.1746 46.4172C13.0338 46.0856 14.3019 46.0842 15.2843 47.075L24.9685 56.8408C25.1015 56.975 25.2671 57.0713 25.4487 57.1203L27.378 57.6411C28.9633 58.0685 30.1907 58.7836 31.3572 59.9599L35.3361 63.9724C37.0559 65.7066 37.9056 67.7804 37.9335 70.3126L38.052 80.2977H21.1326L21.22 79.0295C21.3634 77.006 20.6853 75.1761 19.2589 73.7376V73.7377ZM41.5428 88.6749H17.5829V82.4572H19.9836C19.9836 82.4572 19.9852 82.4572 19.9861 82.4572H19.987H41.5427L41.5428 88.6749Z" fill="#FFB703"/>
<path d="M64.1351 25.6378H67.1648C67.6421 25.6378 68.029 25.2476 68.029 24.7663C68.029 24.285 67.6421 23.8948 67.1648 23.8948H64.1351C63.9274 19.0294 61.9907 14.6087 58.9294 11.2431L59.7584 10.4072H62.547C62.7762 10.4072 62.9961 10.3154 63.1581 10.1519L67.7144 5.55717C67.9617 5.30786 68.0356 4.93308 67.9019 4.60729C67.7681 4.28165 67.4529 4.06926 67.1034 4.06926H64.817V1.76361C64.817 1.41108 64.6063 1.09314 64.2833 0.958234C63.9604 0.823616 63.5884 0.898194 63.3413 1.14751L58.785 5.74645C58.6231 5.90985 58.5321 6.13141 58.5321 6.36241V9.17861L57.7072 10.0104C54.3698 6.92355 49.986 4.97044 45.1612 4.76095V1.70575C45.1612 1.22442 44.7743 0.834229 44.297 0.834229C43.8197 0.834229 43.4328 1.22442 43.4328 1.70575V4.76095C33.1669 5.20638 24.8967 13.5445 24.4549 23.8946H21.4294C20.952 23.8946 20.5651 24.2848 20.5651 24.7662C20.5651 25.2475 20.952 25.6377 21.4294 25.6377H24.4549C24.8967 35.9878 33.1671 44.3259 43.4328 44.7714V47.8266C43.4328 48.3079 43.8197 48.6981 44.297 48.6981C44.7743 48.6981 45.1612 48.3079 45.1612 47.8266V44.7714C55.4249 44.3258 63.6932 35.988 64.1351 25.6378ZM60.2606 6.72337L63.0885 3.86908V4.94078C63.0885 5.42212 63.4754 5.81231 63.9527 5.81231H65.0168L62.1889 8.66399H60.2605V6.72323L60.2606 6.72337ZM26.1844 25.6378H29.173C29.6503 25.6378 30.0372 25.2476 30.0372 24.7663C30.0372 24.285 29.6503 23.8948 29.173 23.8948H26.1844C26.6236 14.5059 34.1201 6.94812 43.4326 6.50531V9.51908C43.4326 10.0004 43.8195 10.3906 44.2969 10.3906C44.7742 10.3906 45.1611 10.0004 45.1611 9.51908V6.50531C49.5096 6.71218 53.4622 8.47049 56.4848 11.2432L51.8722 15.8946C49.8367 14.1234 47.1897 13.0486 44.2969 13.0486C37.8896 13.0486 32.6771 18.3051 32.6771 24.7663C32.6771 31.2275 37.8896 36.4799 44.2969 36.4799C50.7041 36.4799 55.9126 31.2252 55.9126 24.7663C55.9126 21.8496 54.8483 19.1806 53.0941 17.1276L57.7071 12.4757C60.4567 15.5238 62.2003 19.5097 62.4054 23.8948H59.4169C58.9395 23.8948 58.5526 24.285 58.5526 24.7663C58.5526 25.2476 58.9395 25.6378 59.4169 25.6378H62.4054C61.9663 35.0266 54.4716 42.5845 45.1612 43.0273V40.0135C45.1612 39.5322 44.7743 39.142 44.297 39.142C43.8197 39.142 43.4328 39.5322 43.4328 40.0135V43.0273C34.1203 42.5845 26.6236 35.0267 26.1844 25.6378ZM48.3814 24.7663C48.3814 27.0375 46.5491 28.8852 44.2969 28.8852C42.0446 28.8852 40.2083 27.0375 40.2083 24.7663C40.2083 22.4951 42.0425 20.6474 44.2969 20.6474C45.1108 20.6474 45.8692 20.8897 46.5068 21.3051L43.6858 24.1499C43.3483 24.4902 43.3483 25.0421 43.6858 25.3826C43.8544 25.5528 44.0757 25.6378 44.2969 25.6378C44.518 25.6378 44.7393 25.5528 44.9079 25.3826L47.729 22.5377C48.141 23.1807 48.3814 23.9455 48.3814 24.7663ZM47.7485 20.0531C46.7825 19.3319 45.5884 18.9044 44.2969 18.9044C41.0893 18.9044 38.4798 21.534 38.4798 24.7663C38.4798 27.9986 41.0894 30.6283 44.2969 30.6283C47.5043 30.6283 50.1098 27.9986 50.1098 24.7663C50.1098 23.4639 49.686 22.2598 48.9707 21.2856L51.8695 18.3624C53.3127 20.0964 54.184 22.3303 54.184 24.7663C54.184 30.264 49.7486 34.7367 44.2969 34.7367C38.8451 34.7367 34.4056 30.264 34.4056 24.7663C34.4056 19.2687 38.8428 14.7917 44.2969 14.7917C46.713 14.7917 48.9284 15.6718 50.6477 17.1293L47.7483 20.0531H47.7485Z" fill="#1E1E1E"/>
</svg>
