<svg width="50" height="51" viewBox="0 0 50 51" fill="none" xmlns="http://www.w3.org/2000/svg">
<path fill-rule="evenodd" clip-rule="evenodd" d="M25 3.87695C17.2516 3.87695 10.9375 10.3395 10.9375 18.3301C10.9375 22.6238 13.0234 27.1816 15.5937 31.0832C19.3031 36.716 23.9438 40.9645 23.9438 40.9645C24.5422 41.5129 25.4578 41.5129 26.0563 40.9645C26.0563 40.9645 30.6969 36.716 34.4062 31.0832C36.9766 27.1816 39.0625 22.6238 39.0625 18.3301C39.0625 10.3395 32.7484 3.87695 25 3.87695ZM25 10.127C29.3109 10.127 32.8125 13.6285 32.8125 17.9395C32.8125 22.2504 29.3109 25.752 25 25.752C20.6891 25.752 17.1875 22.2504 17.1875 17.9395C17.1875 13.6285 20.6891 10.127 25 10.127ZM15.5391 34.6598C15.4359 34.666 15.3328 34.6848 15.2281 34.7113C12.6625 35.3863 10.6594 36.3379 9.45156 37.3941C8.33906 38.3707 7.8125 39.4816 7.8125 40.5957C7.8125 41.9316 8.6 43.291 10.2484 44.4051C13.0156 46.2723 18.5766 47.627 25 47.627C31.4234 47.627 36.9844 46.2723 39.7516 44.4035C41.4 43.291 42.1875 41.9316 42.1875 40.5957C42.1875 39.4816 41.6609 38.3707 40.5484 37.3941C39.3406 36.3379 37.3375 35.3863 34.7719 34.7113C33.9391 34.491 33.0828 34.9895 32.8641 35.8254C32.6438 36.6598 33.1438 37.5145 33.9781 37.7332C35.6688 38.1801 37.0688 38.7379 38.0406 39.402C38.6078 39.7926 39.0625 40.1301 39.0625 40.5957C39.0625 40.8316 38.8984 41.0332 38.6969 41.2457C38.2891 41.6738 37.6828 42.0582 36.9359 42.4145C34.2437 43.7004 29.8953 44.502 25 44.502C20.1047 44.502 15.7563 43.7004 13.0641 42.4145C12.3172 42.0582 11.7109 41.6738 11.3031 41.2457C11.1016 41.0332 10.9375 40.8316 10.9375 40.5957C10.9375 40.1301 11.3922 39.7926 11.9594 39.402C12.9312 38.7379 14.3312 38.1801 16.0219 37.7332C16.8562 37.5145 17.3562 36.6598 17.1359 35.8254C16.9438 35.0941 16.2641 34.6191 15.5391 34.6598Z" fill="#FFB703"/>
<circle cx="25.0375" cy="17.9132" r="4.63804" fill="#1E1E1E"/>
</svg>
