<svg width="61" height="61" viewBox="0 0 61 61" fill="none" xmlns="http://www.w3.org/2000/svg">
<g clip-path="url(#clip0_163_24669)">
<path d="M49.5757 7.95094C48.2659 7.59833 46.8965 7.77915 45.72 8.46001C43.2952 9.86356 42.4549 12.9823 43.8469 15.4124C44.5219 16.5908 45.6146 17.4339 46.9238 17.7864C47.3615 17.9043 47.8056 17.9625 48.2472 17.9625C49.1271 17.9625 49.9963 17.7308 50.7797 17.2774C53.2046 15.8739 54.0448 12.7552 52.6528 10.325C51.9777 9.14649 50.8848 8.30344 49.5757 7.95094ZM49.899 15.756C49.1301 16.2008 48.2358 16.3191 47.3807 16.089C46.5263 15.859 45.813 15.3084 45.372 14.5388C44.4597 12.9458 45.0107 10.9015 46.6003 9.98134C47.1126 9.68497 47.6805 9.53356 48.2554 9.53356C48.5434 9.53356 48.8333 9.57153 49.1186 9.64829C49.973 9.87833 50.6864 10.4289 51.1274 11.1986C52.0398 12.7916 51.4888 14.8359 49.899 15.756Z" fill="#1E1E1E"/>
<path d="M59.6825 15.5493L58.048 14.1411C58.1768 13.1719 58.1623 12.2001 58.0049 11.2403L59.5449 9.91893C60.2262 9.33428 60.3972 8.34475 59.9513 7.56604L58.5374 5.09795C58.0894 4.31607 57.1478 3.9665 56.2987 4.26686L54.2668 4.9851C53.4989 4.39553 52.6545 3.92666 51.7458 3.58541L51.3791 1.58971C51.2165 0.703184 50.4453 0.0600586 49.5457 0.0600586C49.5456 0.0600586 49.5454 0.0600586 49.5453 0.0600586L46.7056 0.0604102C45.808 0.0606445 45.0354 0.702363 44.8687 1.58607L44.4666 3.71607C43.5818 4.08709 42.7308 4.60002 41.9885 5.2101L40.0851 4.5365C39.238 4.23697 38.296 4.58502 37.8453 5.36502L36.4193 7.83334C35.9694 8.61205 36.1364 9.60229 36.8164 10.188L38.4508 11.5962C38.3221 12.5653 38.3365 13.5371 38.494 14.497L36.9541 15.8184C36.2727 16.403 36.1018 17.3926 36.5476 18.1713L37.9613 20.6392C38.4092 21.4211 39.3504 21.7709 40.2001 21.4704L42.2321 20.7522C43 21.3418 43.8444 21.8106 44.753 22.1519L45.1197 24.1478C45.2826 25.0341 46.0539 25.6772 46.9535 25.6772L49.7932 25.6769C50.6908 25.6767 51.4633 25.0349 51.6301 24.1511L52.0321 22.0211C52.9165 21.65 53.7681 21.1372 54.5101 20.5271L56.414 21.2007C57.261 21.5004 58.2031 21.1518 58.6534 20.3722L60.0795 17.9037C60.5293 17.1251 60.3621 16.135 59.6825 15.5493ZM58.5575 17.0245L57.1314 19.4929C57.1044 19.5397 57.0492 19.5608 57.0003 19.5437L54.6142 18.6993C54.3078 18.5908 53.9665 18.6604 53.7271 18.88C52.9274 19.6131 51.9818 20.185 50.9614 20.5524C50.6683 20.6578 50.453 20.9104 50.3952 21.2164L49.9029 23.8252C49.8926 23.8796 49.8464 23.9191 49.793 23.9191L46.9535 23.9194C46.9022 23.9194 46.8582 23.8818 46.8485 23.83L46.3893 21.3301C46.3305 21.0101 46.0996 20.7487 45.7894 20.6507C44.748 20.322 43.8005 19.7972 42.9735 19.0911C42.6999 18.8822 42.4121 18.8288 42.1098 18.9309L39.6142 19.8129C39.5653 19.8304 39.5127 19.8108 39.4867 19.7655L38.0731 17.2975C38.0457 17.2497 38.0563 17.1885 38.0987 17.1522L40.0251 15.4992C40.2707 15.2885 40.3805 14.9599 40.3112 14.6438C40.0775 13.5783 40.0601 12.4901 40.2596 11.4093C40.3163 11.1021 40.2057 10.7878 39.9691 10.584L37.9637 8.85627C37.923 8.82111 37.9136 8.76076 37.9415 8.7126L39.3674 6.24428C39.3944 6.19764 39.4496 6.17643 39.4987 6.19342L41.8847 7.03775C42.1909 7.14604 42.5323 7.07654 42.7719 6.85693C43.5713 6.12393 44.517 5.55158 45.5373 5.18467C45.8304 5.07932 46.0458 4.82666 46.1036 4.52068L46.596 1.91174C46.6062 1.85736 46.6525 1.81787 46.7059 1.81787H49.5456C49.5968 1.81787 49.6408 1.85537 49.6503 1.90729L50.1096 4.40725C50.1685 4.72717 50.3993 4.98861 50.7095 5.08658C51.7512 5.41541 52.6987 5.94006 53.5254 6.64623C53.764 6.84979 54.0931 6.91096 54.3891 6.80643L56.8847 5.92424C56.9342 5.90689 56.9862 5.92658 57.0122 5.97182L58.4259 8.43979C58.4533 8.4876 58.4426 8.54877 58.4002 8.5851L56.4739 10.2381C56.2282 10.4488 56.1184 10.7774 56.1877 11.0935C56.4214 12.1587 56.4388 13.2469 56.2393 14.328C56.1825 14.6353 56.2932 14.9496 56.5298 15.1533L58.5351 16.881C58.5757 16.9161 58.5851 16.9765 58.5575 17.0245Z" fill="#1E1E1E"/>
<path d="M13.122 31.7153C13.1215 30.1543 11.826 28.7744 10.2413 28.7815L9.74652 28.7803L9.74289 24.3844C9.7416 23.0495 7.65965 23.3643 7.98531 24.609L7.98871 28.7757C7.14718 28.7735 6.30554 28.7712 5.46402 28.769L5.45148 13.7053C5.45136 13.5495 5.40988 13.3966 5.33137 13.2623L3.2384 9.68326L3.23722 4.96236L10.186 4.99471L10.1871 9.659L8.09547 13.2546C8.01718 13.389 7.97605 13.5417 7.97617 13.6972L7.98097 19.4919C7.68683 20.7149 9.74008 20.9312 9.7389 19.6987L9.73422 13.9333L11.8258 10.338C11.9039 10.2037 11.9451 10.0511 11.9451 9.89584L11.9427 0.93873C11.9427 0.485449 11.5241 0.0600586 11.0612 0.0600586L2.35469 0.0854883C1.87808 0.0867773 1.47918 0.485566 1.47836 0.962402L1.4807 9.92174C1.4807 10.0776 1.52219 10.2306 1.60082 10.3652L3.6939 13.9444L3.70621 28.7643L3.21074 28.763C-0.211252 28.7729 -0.647307 34.0519 2.71785 34.6388L2.68926 52.1601C2.68164 57.5271 10.7431 57.4862 10.7503 52.1808L10.7791 34.608C12.1116 34.347 13.1225 33.1483 13.122 31.7153ZM3.23676 3.20455L3.2364 1.84072L10.185 1.82033L10.1854 3.23689L3.23676 3.20455ZM6.73047 54.5336C5.47808 54.5336 4.44531 53.39 4.44707 52.163L4.47566 34.6784L9.02113 34.6652L8.99254 52.1784C8.99078 53.4733 7.97593 54.53 6.73047 54.5336ZM10.2375 32.9037L3.21168 32.9242C1.79031 32.9242 1.80261 30.5249 3.21097 30.521L10.2415 30.5394C11.6519 30.5394 11.662 32.8995 10.2375 32.9037Z" fill="white"/>
<path d="M56.639 49.8776L56.6372 45.9915C56.6346 39.6114 53.7534 33.6585 48.7327 29.6592C48.2313 29.2597 47.3852 29.2192 46.8423 29.569C44.9243 28.2668 42.8228 27.322 40.5763 26.7538C40.6649 26.2822 40.5694 25.6333 40.1024 25.3907C37.3063 23.938 33.9682 23.9392 31.1735 25.3944C30.7066 25.6374 30.6117 26.2871 30.7008 26.7587C29.67 27.0203 28.6697 27.3609 27.7036 27.7793L27.7897 17.4309C31.3707 16.5428 33.262 14.229 33.2722 10.7027C33.2836 6.79686 30.965 2.29932 27.8791 0.241277C27.1331 -0.0607155 26.6776 0.182097 26.5126 0.969949L26.4913 8.27495C26.4592 8.66788 26.2504 8.88421 25.8648 8.92405L22.158 8.90553C21.8116 8.90378 21.5307 8.60823 21.5318 8.24647L21.553 0.941355C21.3933 0.153972 20.94 -0.0920046 20.1929 0.203425C17.0939 2.23147 14.7483 6.70698 14.7369 10.6138C14.7267 14.1369 16.6024 16.468 20.1738 17.3921L20.0767 31.9861C16.5983 35.8084 14.6539 40.7647 14.6562 46.0091L14.6578 49.8853C11.1921 50.9434 11.8623 56.2489 15.5674 56.2489C18.1598 56.2489 20.5841 57.0197 22.8471 58.2349C25.1195 59.4289 27.6782 60.06 30.2468 60.06H30.2535L41.0518 60.0554C43.6229 60.0542 46.1835 59.4211 48.4567 58.2243C50.7176 56.9951 53.1404 56.2331 55.7333 56.2321C59.3881 56.2307 60.1623 50.9067 56.639 49.8776ZM46.1037 31.1942L46.108 41.5017C46.1082 41.9871 46.5016 42.3803 46.9869 42.3803H46.9873C47.4728 42.38 47.8661 41.9864 47.8658 41.501L47.8615 31.2152C52.3229 34.8766 54.877 40.2458 54.8795 45.9923L54.8813 49.7401H47.8695L47.8678 46.1728C47.8676 45.6874 47.4742 45.2943 46.9889 45.2943C46.9888 45.2943 46.9887 45.2943 46.9886 45.2943C46.5031 45.2945 46.1098 45.6881 46.11 46.1735L46.1115 49.7402H40.5861L40.5772 28.5726C42.5584 29.1255 44.4115 30.0047 46.1037 31.1942ZM38.8186 26.7241L38.8283 49.74H32.4684L32.4587 26.7267C34.483 25.8382 36.7935 25.8373 38.8186 26.7241ZM30.7105 49.7401H25.1852L25.1774 31.203C26.8504 30.0248 28.7316 29.1292 30.7016 28.5774L30.7105 49.7401ZM16.4948 10.6189C16.5027 7.91389 17.87 4.79694 19.7898 2.81718L19.7741 8.24143C19.7702 9.57046 20.8358 10.6569 22.1495 10.6635L25.8563 10.682C27.1376 10.682 28.2456 9.55839 28.2492 8.2801L28.265 2.86229C30.1734 4.86186 31.5225 7.99253 31.5145 10.6978C31.5062 13.5773 29.9498 15.2648 26.7566 15.8565C26.3427 15.9332 26.0413 16.2924 26.0378 16.7134L25.9384 28.6499C25.4263 28.9355 24.9261 29.2459 24.4372 29.5785C23.8943 29.2291 23.048 29.2701 22.5471 29.6702C22.308 29.861 22.0754 30.0575 21.8461 30.2571L21.9363 16.6973C21.939 16.2749 21.6409 15.9099 21.2261 15.829C18.034 15.2046 16.4864 13.5005 16.4948 10.6189ZM23.4195 31.2254L23.4273 49.74H16.4155L16.4139 46.0084C16.4116 40.262 18.9611 34.8906 23.4195 31.2254ZM56.8179 54.0142C56.5315 54.3107 56.1459 54.474 55.7325 54.4743C52.8585 54.4754 50.1504 55.3194 47.6377 56.6688C45.6158 57.7335 43.3383 58.2968 41.0511 58.2976L30.2528 58.3022C30.2505 58.3022 30.2489 58.3022 30.2468 58.3022C27.962 58.3021 25.6859 57.7409 23.6647 56.6788C21.2302 55.3768 18.3784 54.3349 15.5674 54.4911C13.5981 54.4911 13.6364 51.4986 15.6288 51.4978H24.3066H31.5896H39.7073H46.9906H55.6685C56.9077 51.5718 57.7855 53.0127 56.8179 54.0142Z" fill="white"/>
</g>
<defs>
<clipPath id="clip0_163_24669">
<rect width="60" height="60" fill="white" transform="translate(0.369141 0.0600586)"/>
</clipPath>
</defs>
</svg>
