<svg width="60" height="60" viewBox="0 0 60 60" fill="none" xmlns="http://www.w3.org/2000/svg">
<path d="M2.60583 25.3363C2.27772 25.5783 2.20765 26.0408 2.45002 26.3693C2.69239 26.6974 3.15321 26.7674 3.48297 26.5251L5.20757 25.253V50.1378H4.84649C3.50852 50.1378 2.41952 51.2264 2.41952 52.5648V54.1125C2.41952 54.5206 2.75009 54.8512 3.15816 54.8512H56.9563C57.3644 54.8512 57.695 54.5206 57.695 54.1125V52.5648C57.695 51.2264 56.606 50.1378 55.268 50.1378H54.9061V31.4878H56.9563C57.3644 31.4878 57.695 31.1573 57.695 30.7492V18.2796C57.695 17.8716 57.3644 17.541 56.9563 17.541H29.1146C29.0935 17.541 29.0758 17.5512 29.0552 17.553L21.5451 12.0135C21.2846 11.8215 20.9285 11.8215 20.668 12.0135L12.4366 18.0851V13.8404H13.4134C14.5676 13.8404 15.5065 12.9014 15.5065 11.7468C15.5065 10.5923 14.5676 9.65333 13.4134 9.65333H12.4366V6.62621H13.7333C14.1414 6.62621 14.4719 6.29564 14.4719 5.88757C14.4719 5.4795 14.1414 5.14893 13.7333 5.14893H11.6979H7.63289H5.59667C5.18861 5.14893 4.85803 5.4795 4.85803 5.88757C4.85803 6.29564 5.18861 6.62621 5.59667 6.62621H6.89425V9.65333H5.82668C4.67255 9.65333 3.73358 10.5923 3.73358 11.7468C3.73358 12.9014 4.67255 13.8404 5.82668 13.8404H6.80027V22.2425L2.60583 25.3363ZM56.2177 52.5648V53.3739H3.89681V52.5648C3.89681 52.0413 4.32301 51.6151 4.84649 51.6151H5.94621H36.2669H54.1675H55.268C55.7915 51.6151 56.2177 52.0413 56.2177 52.5648ZM11.1068 50.1353V38.5998C11.1068 35.7041 13.4629 33.3485 16.3581 33.3485C19.2533 33.3485 21.6094 35.7041 21.6094 38.5998V50.1353H11.1068ZM53.4288 50.1378H37.0055V31.4878H38.2907H53.4288V50.1378ZM47.2138 30.0106V19.0183H50.8807V30.0106H47.2138ZM45.7365 30.0106H42.0697V19.0183H45.7365V30.0106ZM56.2177 30.0106H54.1675H52.3579V19.0183H56.2177V30.0106ZM40.5924 19.0183V30.0106H38.2907H37.0055V25.253L38.7301 26.5251C38.862 26.6224 39.0162 26.6693 39.1679 26.6693C39.3946 26.6693 39.618 26.5655 39.7631 26.3693C40.0054 26.0408 39.9354 25.5783 39.6073 25.3363L31.0418 19.0183H40.5924ZM35.5282 24.1636V50.1378H23.0867V38.5998C23.0867 34.8896 20.0687 31.8712 16.3581 31.8712C12.6476 31.8712 9.62954 34.8896 9.62954 38.5998V50.1378H6.68486V24.1636L8.81196 22.5946L12.1348 20.1547C12.1455 20.1468 12.1497 20.1335 12.16 20.1251L21.1065 13.5259L35.5282 24.1636ZM8.37154 6.62621H10.9593V9.65333H8.37154V6.62621ZM5.21087 11.7468C5.21087 11.4072 5.48703 11.1306 5.82668 11.1306H7.63289H11.6979H13.4134C13.7531 11.1306 14.0293 11.4072 14.0293 11.7468C14.0293 12.0865 13.7531 12.3631 13.4134 12.3631H11.6979H7.53891H5.82668C5.48703 12.3631 5.21087 12.0865 5.21087 11.7468ZM8.27756 13.8404H10.9593V19.1748L8.27756 21.1528V13.8404Z" fill="#FFB703"/>
<path d="M13.2943 39.4451C12.8862 39.4451 12.5557 39.7756 12.5557 40.1837V42.9977C12.5557 43.4058 12.8862 43.7364 13.2943 43.7364C13.7024 43.7364 14.033 43.4058 14.033 42.9977V40.1837C14.033 39.7756 13.7024 39.4451 13.2943 39.4451Z" fill="#1E1E1E"/>
<path d="M21.1065 24.6018C23.0463 24.6018 24.6241 23.0239 24.6241 21.0846C24.6241 19.1452 23.0463 17.5674 21.1065 17.5674C19.1667 17.5674 17.5889 19.1452 17.5889 21.0846C17.5889 23.0239 19.1667 24.6018 21.1065 24.6018ZM21.1065 19.0447C22.2318 19.0447 23.1468 19.9597 23.1468 21.0846C23.1468 22.2095 22.2318 23.1245 21.1065 23.1245C19.9812 23.1245 19.0662 22.2095 19.0662 21.0846C19.0662 19.9597 19.9812 19.0447 21.1065 19.0447Z" fill="#1E1E1E"/>
<path d="M10.6357 26.8488C10.6357 27.2568 10.9663 27.5874 11.3744 27.5874H30.8429C31.251 27.5874 31.5816 27.2568 31.5816 26.8488C31.5816 26.4407 31.251 26.1101 30.8429 26.1101H11.3744C10.9663 26.1101 10.6357 26.4407 10.6357 26.8488Z" fill="#1E1E1E"/>
<path d="M25.0492 38.0408C24.6411 38.0408 24.3105 38.3713 24.3105 38.7794C24.3105 39.1875 24.6411 39.5181 25.0492 39.5181H25.1069V43.9656H25.0492C24.6411 43.9656 24.3105 44.2962 24.3105 44.7042C24.3105 45.1123 24.6411 45.4429 25.0492 45.4429H25.8455H32.7695H33.5659C33.9739 45.4429 34.3045 45.1123 34.3045 44.7042C34.3045 44.2962 33.9739 43.9656 33.5659 43.9656H33.5081V39.5181H33.5659C33.9739 39.5181 34.3045 39.1875 34.3045 38.7794C34.3045 38.3713 33.9739 38.0408 33.5659 38.0408H32.7695H25.8455H25.0492ZM32.0309 39.5181V43.9656H26.5842V39.5181H32.0309Z" fill="#1E1E1E"/>
<path d="M49.0817 34.3211L47.2722 36.1306C46.9845 36.4192 46.9845 36.8866 47.2722 37.1751C47.5607 37.4637 48.0289 37.4637 48.3175 37.1751L48.8657 36.6268V45.7404H41.8851L42.4339 45.1918C42.7216 44.9033 42.7216 44.4359 42.4339 44.1473C42.1454 43.8588 41.6771 43.8588 41.3886 44.1473L39.5791 45.9568C39.2914 46.2454 39.2914 46.7128 39.5791 47.0013L41.3886 48.8108C41.5328 48.9551 41.7224 49.0272 41.9112 49.0272C42.1 49.0272 42.2896 48.9551 42.4339 48.8108C42.7216 48.5223 42.7216 48.0549 42.4339 47.7663L41.8851 47.2177H49.6043C50.0124 47.2177 50.343 46.8871 50.343 46.4791V36.6268L50.8912 37.1751C51.0355 37.3194 51.2251 37.3915 51.4139 37.3915C51.6026 37.3915 51.7922 37.3194 51.9365 37.1751C52.2242 36.8866 52.2242 36.4192 51.9365 36.1306L50.127 34.3211C49.8385 34.0326 49.3702 34.0326 49.0817 34.3211Z" fill="#1E1E1E"/>
</svg>
