<svg width="61" height="60" viewBox="0 0 61 60" fill="none" xmlns="http://www.w3.org/2000/svg">
<g clip-path="url(#clip0_163_21206)">
<path d="M49.479 7.89089C48.1692 7.53827 46.7998 7.71909 45.6233 8.39995C43.1985 9.8035 42.3583 12.9222 43.7502 15.3523C44.4252 16.5308 45.5179 17.3738 46.8271 17.7263C47.2648 17.8442 47.7089 17.9024 48.1505 17.9024C49.0305 17.9024 49.8996 17.6708 50.683 17.2174C53.1079 15.8138 53.9481 12.6951 52.5562 10.265C51.881 9.08643 50.7881 8.24339 49.479 7.89089ZM49.8024 15.6959C49.0334 16.1408 48.1391 16.259 47.284 16.029C46.4296 15.7989 45.7163 15.2484 45.2753 14.4787C44.363 12.8858 44.914 10.8414 46.5037 9.92128C47.0159 9.62491 47.5838 9.4735 48.1587 9.4735C48.4467 9.4735 48.7367 9.51147 49.0219 9.58823C49.8763 9.81827 50.5897 10.3688 51.0307 11.1385C51.9431 12.7315 51.3921 14.7759 49.8024 15.6959Z" fill="#1E1E1E"/>
<path d="M59.5858 15.4893L57.9514 14.081C58.0802 13.1119 58.0656 12.14 57.9082 11.1803L59.4482 9.85887C60.1295 9.27422 60.3005 8.28469 59.8546 7.50598L58.4407 5.03789C57.9927 4.25602 57.0511 3.90645 56.202 4.2068L54.1701 4.92504C53.4023 4.33547 52.5578 3.8666 51.6491 3.52535L51.2825 1.52965C51.1198 0.643125 50.3486 0 49.4491 0C49.4489 0 49.4487 0 49.4486 0L46.6089 0.000351563C45.7114 0.000585938 44.9387 0.642305 44.772 1.52602L44.3699 3.65602C43.4851 4.02703 42.6341 4.53996 41.8919 5.15004L39.9884 4.47645C39.1414 4.17691 38.1993 4.52496 37.7486 5.30496L36.3226 7.77328C35.8728 8.55199 36.0398 9.54223 36.7197 10.1279L38.3541 11.5362C38.2254 12.5052 38.2398 13.477 38.3973 14.4369L36.8574 15.7583C36.176 16.343 36.0051 17.3325 36.451 18.1112L37.8646 20.5792C38.3125 21.3611 39.2537 21.7109 40.1035 21.4104L42.1354 20.6921C42.9033 21.2817 43.7478 21.7506 44.6563 22.0918L45.023 24.0878C45.1859 24.9741 45.9572 25.6172 46.8569 25.6172L49.6966 25.6168C50.5941 25.6166 51.3666 24.9749 51.5335 24.0911L51.9354 21.9611C52.8198 21.5899 53.6714 21.0771 54.4135 20.467L56.3173 21.1406C57.1643 21.4404 58.1064 21.0918 58.5567 20.3121L59.9828 17.8437C60.4326 17.0651 60.2655 16.075 59.5858 15.4893ZM58.4608 16.9644L57.0347 19.4329C57.0078 19.4796 56.9526 19.5007 56.9036 19.4836L54.5175 18.6393C54.2111 18.5307 53.8698 18.6004 53.6304 18.82C52.8307 19.5531 51.8851 20.125 50.8647 20.4923C50.5716 20.5977 50.3563 20.8504 50.2985 21.1563L49.8062 23.7652C49.7959 23.8195 49.7498 23.859 49.6963 23.859L46.8569 23.8594C46.8055 23.8594 46.7615 23.8218 46.7519 23.77L46.2926 21.27C46.2338 20.9501 46.0029 20.6886 45.6927 20.5907C44.6513 20.262 43.7038 19.7372 42.8768 19.031C42.6032 18.8222 42.3154 18.7688 42.0132 18.8708L39.5175 19.7529C39.4687 19.7704 39.416 19.7508 39.39 19.7054L37.9764 17.2375C37.949 17.1896 37.9596 17.1285 38.0021 17.0921L39.9284 15.4391C40.174 15.2284 40.2838 14.8998 40.2146 14.5837C39.9808 13.5183 39.9634 12.4301 40.1629 11.3493C40.2196 11.042 40.109 10.7277 39.8724 10.5239L37.8671 8.79621C37.8263 8.76105 37.8169 8.7007 37.8448 8.65254L39.2707 6.18422C39.2977 6.13758 39.3529 6.11637 39.402 6.13336L41.788 6.9777C42.0943 7.08598 42.4356 7.01648 42.6753 6.79688C43.4746 6.06387 44.4203 5.49152 45.4407 5.12461C45.7337 5.01926 45.9491 4.7666 46.0069 4.46062L46.4993 1.85168C46.5095 1.7973 46.5558 1.75781 46.6092 1.75781H49.4489C49.5001 1.75781 49.5441 1.79531 49.5536 1.84723L50.013 4.34719C50.0718 4.66711 50.3026 4.92856 50.6128 5.02652C51.6545 5.35535 52.602 5.88 53.4287 6.58617C53.6673 6.78973 53.9964 6.8509 54.2924 6.74637L56.788 5.86418C56.8375 5.84684 56.8895 5.86652 56.9155 5.91176L58.3292 8.37973C58.3566 8.42754 58.3459 8.48871 58.3035 8.52504L56.3772 10.1781C56.1316 10.3888 56.0218 10.7174 56.091 11.0334C56.3247 12.0987 56.3421 13.1869 56.1426 14.2679C56.0859 14.5752 56.1965 14.8895 56.4331 15.0933L58.4384 16.821C58.4791 16.856 58.4884 16.9165 58.4608 16.9644Z" fill="#1E1E1E"/>
<path d="M13.0253 31.6553C13.0248 30.0942 11.7293 28.7143 10.1446 28.7215L9.64984 28.7202L9.64621 24.3244C9.64492 22.9895 7.56297 23.3043 7.88863 24.5489L7.89203 28.7156C7.05051 28.7134 6.20886 28.7112 5.36734 28.7089L5.3548 13.6452C5.35468 13.4895 5.3132 13.3365 5.23469 13.2022L3.14172 9.6232L3.14054 4.90231L10.0893 4.93465L10.0905 9.59895L7.99879 13.1945C7.92051 13.3289 7.87937 13.4816 7.87949 13.6371L7.88429 19.4318C7.59015 20.6549 9.6434 20.8711 9.64222 19.6386L9.63754 13.8732L11.7291 10.2779C11.8073 10.1436 11.8484 9.99106 11.8484 9.83578L11.8461 0.878672C11.8461 0.425391 11.4275 0 10.9646 0L2.25801 0.0254297C1.7814 0.0267188 1.3825 0.425508 1.38168 0.902344L1.38402 9.86168C1.38402 10.0175 1.42551 10.1706 1.50414 10.3051L3.59722 13.8844L3.60953 28.7043L3.11406 28.703C-0.307932 28.7128 -0.743987 33.9919 2.62117 34.5788L2.59258 52.1C2.58496 57.467 10.6464 57.4261 10.6537 52.1208L10.6824 34.5479C12.0149 34.287 13.0258 33.0882 13.0253 31.6553ZM3.14008 3.14449L3.13972 1.78066L10.0884 1.76027L10.0887 3.17684L3.14008 3.14449ZM6.63379 54.4736C5.3814 54.4736 4.34863 53.3299 4.35039 52.103L4.37898 34.6184L8.92445 34.6051L8.89586 52.1183C8.8941 53.4132 7.87926 54.4699 6.63379 54.4736ZM10.1409 32.8437L3.115 32.8642C1.69363 32.8642 1.70594 30.4649 3.11429 30.4609L10.1448 30.4793C11.5552 30.4793 11.5653 32.8395 10.1409 32.8437Z" fill="#FFB703"/>
<path d="M56.5423 49.8175L56.5405 45.9315C56.5379 39.5513 53.6568 33.5984 48.636 29.5991C48.1347 29.1997 47.2886 29.1591 46.7456 29.5089C44.8276 28.2067 42.7261 27.262 40.4796 26.6937C40.5682 26.2222 40.4727 25.5733 40.0057 25.3306C37.2096 23.8779 33.8715 23.8791 31.0768 25.3343C30.61 25.5774 30.515 26.2271 30.6041 26.6986C29.5733 26.9602 28.573 27.3009 27.6069 27.7192L27.693 17.3709C31.2741 16.4827 33.1654 14.169 33.1755 10.6427C33.1869 6.7368 30.8684 2.23927 27.7825 0.181218C27.0364 -0.120774 26.5809 0.122038 26.4159 0.90989L26.3946 8.21489C26.3625 8.60782 26.1537 8.82415 25.7681 8.86399L22.0614 8.84548C21.715 8.84372 21.4341 8.54817 21.4351 8.18641L21.4563 0.881296C21.2966 0.0939134 20.8433 -0.152063 20.0963 0.143367C16.9972 2.17141 14.6516 6.64692 14.6402 10.5537C14.63 14.0768 16.5057 16.4079 20.0772 17.3321L19.98 31.926C16.5016 35.7483 14.5573 40.7047 14.5595 45.949L14.5611 49.8252C11.0954 50.8833 11.7656 56.1889 15.4707 56.1889C18.0632 56.1889 20.4874 56.9596 22.7504 58.1749C25.0228 59.3689 27.5815 59.9999 30.1501 59.9999H30.1568L40.9552 59.9954C43.5263 59.9942 46.0868 59.361 48.36 58.1642C50.6209 56.935 53.0438 56.1731 55.6366 56.172C59.2914 56.1706 60.0656 50.8466 56.5423 49.8175ZM46.007 31.1342L46.0113 41.4417C46.0116 41.927 46.405 42.3202 46.8902 42.3202H46.8906C47.3761 42.32 47.7694 41.9263 47.7691 41.4409L47.7648 31.1552C52.2263 34.8166 54.7804 40.1858 54.7828 45.9323L54.7846 49.6801H47.7728L47.7711 46.1127C47.7709 45.6274 47.3775 45.2342 46.8922 45.2342C46.8921 45.2342 46.892 45.2342 46.8919 45.2342C46.4064 45.2344 46.0131 45.6281 46.0133 46.1134L46.0148 49.6802H40.4895L40.4805 28.5126C42.4617 29.0655 44.3148 29.9446 46.007 31.1342ZM38.7219 26.6641L38.7316 49.6799H32.3718L32.362 26.6666C34.3863 25.7781 36.6968 25.7772 38.7219 26.6641ZM30.6138 49.6801H25.0886L25.0807 31.143C26.7537 29.9648 28.6349 29.0691 30.6049 28.5174L30.6138 49.6801ZM16.3982 10.5589C16.406 7.85384 17.7734 4.73688 19.6931 2.75712L19.6774 8.18137C19.6736 9.5104 20.7391 10.5968 22.0528 10.6034L25.7596 10.6219C27.0409 10.6219 28.1489 9.49833 28.1525 8.22005L28.1684 2.80223C30.0768 4.8018 31.4258 7.93247 31.4179 10.6377C31.4095 13.5173 29.8532 15.2048 26.6599 15.7965C26.246 15.8731 25.9446 16.2324 25.9411 16.6533L25.8417 28.5898C25.3296 28.8754 24.8295 29.1858 24.3405 29.5184C23.7976 29.1691 22.9513 29.2101 22.4504 29.6102C22.2114 29.8009 21.9788 29.9975 21.7494 30.197L21.8397 16.6373C21.8423 16.2148 21.5442 15.8499 21.1294 15.7689C17.9373 15.1445 16.3897 13.4404 16.3982 10.5589ZM23.3228 31.1654L23.3306 49.6799H16.3188L16.3172 45.9483C16.315 40.2019 18.8644 34.8305 23.3228 31.1654ZM56.7212 53.9541C56.4348 54.2506 56.0493 54.414 55.6358 54.4142C52.7618 54.4154 50.0537 55.2593 47.541 56.6088C45.5191 57.6734 43.2416 58.2367 40.9545 58.2376L30.1561 58.2421C30.1539 58.2421 30.1522 58.2421 30.1501 58.2421C27.8653 58.242 25.5892 57.6808 23.568 56.6187C21.1335 55.3168 18.2817 54.2749 15.4707 54.4311C13.5014 54.4311 13.5397 51.4386 15.5321 51.4377H24.2099H31.493H39.6107H46.8939H55.5718C56.811 51.5117 57.6888 52.9526 56.7212 53.9541Z" fill="#FFB703"/>
</g>
<defs>
<clipPath id="clip0_163_21206">
<rect width="60" height="60" fill="white" transform="translate(0.272461)"/>
</clipPath>
</defs>
</svg>
