<svg width="60" height="60" viewBox="0 0 60 60" fill="none" xmlns="http://www.w3.org/2000/svg">
<g clip-path="url(#clip0_163_21245)">
<path d="M37.7173 49.7883C38.4444 49.7883 39.0358 49.1969 39.0358 48.4698V44.4149C39.0358 43.0773 37.9477 41.9893 36.6102 41.9893H34.6748C33.3372 41.9893 32.249 43.0773 32.249 44.4149V48.4698C32.249 49.1969 32.8405 49.7883 33.5675 49.7883H37.7173ZM34.0068 44.4149C34.0068 44.0466 34.3065 43.7471 34.6748 43.7471H36.6102C36.9785 43.7471 37.278 44.0467 37.278 44.4149V48.0305H34.0068V44.4149Z" fill="#FFB703"/>
<path d="M50.5689 49.7883C51.2959 49.7883 51.8874 49.1969 51.8874 48.4698V44.4149C51.8874 43.0773 50.7993 41.9893 49.4617 41.9893H47.5263C46.1887 41.9893 45.1006 43.0773 45.1006 44.4149V48.4698C45.1006 49.1969 45.692 49.7883 46.4191 49.7883H50.5689ZM46.8584 44.4149C46.8584 44.0466 47.158 43.7471 47.5263 43.7471H49.4617C49.83 43.7471 50.1296 44.0467 50.1296 44.4149V48.0305H46.8584V44.4149Z" fill="#FFB703"/>
<path d="M43.0618 40.2549C43.5473 40.2549 43.9407 39.8615 43.9407 39.376C43.9407 38.8905 43.5473 38.4971 43.0618 38.4971H41.0762C40.5907 38.4971 40.1973 38.8905 40.1973 39.376C40.1973 39.8615 40.5907 40.2549 41.0762 40.2549H43.0618Z" fill="#FFB703"/>
<path d="M57.1024 58.2418H56.2036V39.1969C56.2036 38.8376 55.9849 38.5145 55.6513 38.3809L42.3951 33.075C42.1854 32.991 41.9515 32.991 41.7419 33.075L28.4855 38.3809C28.1519 38.5145 27.9332 38.8375 27.9332 39.1969V43.785C27.9332 44.2705 28.3266 44.6639 28.8121 44.6639C29.2976 44.6639 29.691 44.2705 29.691 43.785V39.7917L42.0685 34.8376L54.4458 39.7917V58.2417H46.0951V53.2422C46.0951 52.2555 45.2923 51.4527 44.3056 51.4527H39.831C38.8443 51.4527 38.0416 52.2555 38.0416 53.2422V58.2417H29.6908V47.1834C29.6908 46.6979 29.2974 46.3045 28.8119 46.3045C28.3264 46.3045 27.933 46.6979 27.933 47.1834V58.2417H27.0342C26.5487 58.2417 26.1553 58.6351 26.1553 59.1206C26.1553 59.6061 26.5487 59.9995 27.0342 59.9995H57.1022C57.5877 59.9995 57.9811 59.6061 57.9811 59.1206C57.9811 58.6351 57.5879 58.2418 57.1024 58.2418ZM39.7996 53.2423C39.7996 53.2249 39.8138 53.2106 39.8313 53.2106H44.3058C44.3233 53.2106 44.3376 53.2248 44.3376 53.2423V58.2418H39.7997L39.7996 53.2423Z" fill="#1E1E1E"/>
<path d="M59.9111 27.2078C59.7845 26.8794 59.5376 26.6199 59.2157 26.4772L54.5154 24.3935C54.0717 24.1963 53.5523 24.397 53.3558 24.8407C53.159 25.2845 53.3593 25.8037 53.8029 26.0004L58.101 27.9057L57.3321 29.64L42.4246 23.0311C42.1978 22.9307 41.9389 22.9307 41.7121 23.0311L26.8049 29.64L26.036 27.9058L41.6839 20.9686C41.9283 20.8604 42.2085 20.8604 42.4527 20.9686L50.6946 24.6225C51.1382 24.819 51.6576 24.6189 51.8543 24.1753C52.051 23.7315 51.8507 23.2123 51.4071 23.0156L43.1651 19.3618C43.0935 19.33 43.0209 19.3017 42.9474 19.2763V13.7934H55.2634C55.7673 13.7934 56.2292 13.5179 56.4687 13.0745C56.7081 12.6311 56.6853 12.0938 56.4089 11.6724L54.2078 8.31508C53.9539 7.92755 53.5256 7.69622 53.0622 7.69622H20.0697C19.5842 7.69622 19.1908 8.08962 19.1908 8.57512C19.1908 9.06063 19.5842 9.45402 20.0697 9.45402H52.8527L54.5452 12.0356H2.50603L4.19867 9.45402H16.6713C17.1568 9.45402 17.5502 9.06063 17.5502 8.57512C17.5502 8.08962 17.1568 7.69622 16.6713 7.69622H13.7805V4.71336C13.7805 3.93232 13.145 3.29693 12.364 3.29693H11.1363V0.879142C11.1363 0.393639 10.7429 0.000244141 10.2574 0.000244141C9.77194 0.000244141 9.37854 0.393639 9.37854 0.879142V3.29705H8.15101C7.36997 3.29705 6.73447 3.93243 6.73447 4.71348V7.69611H3.98902C3.52532 7.69611 3.097 7.92767 2.84353 8.31485L0.642298 11.6721C0.365973 12.0936 0.343004 12.6309 0.582416 13.0744C0.821945 13.5178 1.28378 13.7933 1.78779 13.7933H6.73435V26.201H6.65794C6.17244 26.201 5.77904 26.5944 5.77904 27.0799C5.77904 27.5654 6.17244 27.9588 6.65794 27.9588H6.73435V30.7681H6.65794C6.17244 30.7681 5.77904 31.1615 5.77904 31.647C5.77904 32.1325 6.17244 32.5259 6.65794 32.5259H6.73435V35.3352H6.65794C6.17244 35.3352 5.77904 35.7286 5.77904 36.2141C5.77904 36.6996 6.17244 37.093 6.65794 37.093H6.73435V39.9023H6.65794C6.17244 39.9023 5.77904 40.2957 5.77904 40.7812C5.77904 41.2667 6.17244 41.6601 6.65794 41.6601H6.73435V44.4694H6.65794C6.17244 44.4694 5.77904 44.8628 5.77904 45.3483C5.77904 45.8338 6.17244 46.2272 6.65794 46.2272H6.73435V49.0365H6.65794C6.17244 49.0365 5.77904 49.4299 5.77904 49.9154C5.77904 50.4009 6.17244 50.7943 6.65794 50.7943H6.73435V52.4423H1.42077C0.637259 52.4422 0 53.0794 0 53.863V58.5789C0 59.3624 0.637259 59.9997 1.42077 59.9997H8.4496C8.93511 59.9997 9.3285 59.6063 9.3285 59.1208C9.3285 58.6353 8.93511 58.2419 8.4496 58.2419H1.7578V54.2H18.7571V58.2419H11.848C11.3625 58.2419 10.9691 58.6353 10.9691 59.1208C10.9691 59.6063 11.3625 59.9997 11.848 59.9997H19.0941C19.8776 59.9997 20.5149 59.3623 20.5149 58.5789V53.863C20.5149 53.0794 19.8776 52.4422 19.0941 52.4422H13.7804V50.7942H13.8568C14.3423 50.7942 14.7357 50.4008 14.7357 49.9153C14.7357 49.4298 14.3423 49.0364 13.8568 49.0364H13.7804V46.2271H13.8568C14.3423 46.2271 14.7357 45.8337 14.7357 45.3482C14.7357 44.8627 14.3423 44.4693 13.8568 44.4693H13.7804V41.66H13.8568C14.3423 41.66 14.7357 41.2666 14.7357 40.7811C14.7357 40.2956 14.3423 39.9022 13.8568 39.9022H13.7804V37.0929H13.8568C14.3423 37.0929 14.7357 36.6995 14.7357 36.214C14.7357 35.7285 14.3423 35.3351 13.8568 35.3351H13.7804V32.5258H13.8568C14.3423 32.5258 14.7357 32.1324 14.7357 31.6469C14.7357 31.1614 14.3423 30.768 13.8568 30.768H13.7804V27.9587H13.8568C14.3423 27.9587 14.7357 27.5653 14.7357 27.0798C14.7357 26.5943 14.3423 26.2009 13.8568 26.2009H13.7804V23.6563H22.7738C23.4222 23.6563 24.0251 23.3351 24.3867 22.7969C24.7484 22.2586 24.8181 21.5789 24.573 20.9786L21.6406 13.7933H41.1896V19.2762C41.116 19.3014 41.0432 19.3299 40.9716 19.3617L24.9211 26.4773C24.2571 26.7719 23.9564 27.5518 24.2507 28.216L25.3761 30.7543C25.5187 31.0763 25.7783 31.3233 26.1068 31.4501C26.2606 31.5095 26.4212 31.5391 26.5814 31.5391C26.7629 31.5391 26.9441 31.5011 27.115 31.4253L42.0685 24.7961L57.0223 31.4254C57.6863 31.7195 58.4664 31.4187 58.7609 30.7546L59.8862 28.2163C60.0289 27.8943 60.0377 27.5361 59.9111 27.2078ZM8.49226 5.05484H12.0227V7.69611H8.49226V5.05484ZM12.0227 52.4422H8.49226V50.7942H12.0227V52.4422ZM12.0227 49.0363H8.49226V46.227H12.0227V49.0363ZM12.0227 44.4692H8.49226V41.6599H12.0227V44.4692ZM12.0227 39.9022H8.49226V37.0929H12.0227V39.9022ZM12.0227 35.3351H8.49226V32.5258H12.0227V35.3351ZM12.0227 30.768H8.49226V27.9587H12.0227V30.768ZM8.49226 26.201V13.7933H12.0227V26.201H8.49226ZM22.9456 21.6428C22.9765 21.7185 22.9529 21.779 22.9279 21.8164C22.9028 21.8537 22.8557 21.8984 22.774 21.8984H13.7806V13.7932H19.7422L22.9456 21.6428Z" fill="#FFB703"/>
</g>
<defs>
<clipPath id="clip0_163_21245">
<rect width="60" height="60" fill="white"/>
</clipPath>
</defs>
</svg>
