<svg width="91" height="91" viewBox="0 0 91 91" fill="none" xmlns="http://www.w3.org/2000/svg">
<g clip-path="url(#clip0_201_4241)">
<path d="M90.2711 45.0592C80.8966 30.1035 64.6472 20.8455 47.0019 20.4066V8.35852H44.0019V20.4066C26.3566 20.8455 10.1072 30.1035 0.73272 45.0592C0.425031 45.5478 0.425031 46.1696 0.73272 46.6582C10.1072 61.6138 26.3566 70.8718 44.0019 71.3108V83.3588H47.0019V71.3108C64.6472 70.8718 80.8966 61.6138 90.2711 46.6582C90.579 46.1696 90.579 45.5478 90.2711 45.0592ZM3.78523 45.8587C9.90919 36.4947 19.0165 29.4737 29.6303 25.9341C23.9729 30.4394 20.4996 37.1388 20.0783 44.3587H8.00175V47.3587H20.0783C20.4996 54.5786 23.9729 61.278 29.6303 65.7833C19.0165 62.2436 9.90919 55.2227 3.78523 45.8587ZM44.0019 59.3587V68.2823C32.7772 67.5199 23.8407 58.5834 23.0783 47.3587H32.0018V44.3587H23.0783C23.8407 33.1339 32.7772 24.1975 44.0019 23.4351V32.3586H47.0019V23.4351C58.2266 24.1975 67.1631 33.1337 67.9255 44.3587H59.002V47.3587H67.9255C67.1631 58.5834 58.2266 67.5199 47.0019 68.2823V59.3587H44.0019ZM87.2186 45.8587C81.0946 55.2227 71.9873 62.2436 61.3735 65.7833C67.0309 61.278 70.5042 54.5786 70.9255 47.3587H83.0021V44.3587H70.9255C70.5042 37.1388 67.0309 30.4392 61.3735 25.9341C71.9875 29.4739 81.0946 36.4947 87.2186 45.8587Z" fill="#FFB703"/>
<path d="M45.502 35.3586C39.703 35.3586 35.002 40.0597 35.002 45.8587C35.0085 51.6549 39.7058 56.3522 45.502 56.3587C51.301 56.3587 56.002 51.6577 56.002 45.8587C56.002 40.0597 51.301 35.3586 45.502 35.3586ZM45.502 53.3587C41.3599 53.3587 38.002 50.0008 38.002 45.8587C38.0068 41.7187 41.362 38.3635 45.502 38.3587C49.6441 38.3587 53.002 41.7166 53.002 45.8587C53.002 50.0008 49.6443 53.3587 45.502 53.3587Z" fill="#1E1E1E"/>
<path d="M9.50196 8.35852C8.67358 8.35852 8.00195 9.03015 8.00195 9.85853V21.8586H11.002V11.3585H21.502V8.35852H9.50196Z" fill="#FFB703"/>
<path d="M81.502 8.35852H69.502V11.3585H80.002V21.8586H83.002V9.85853C83.002 9.03015 82.3304 8.35852 81.502 8.35852Z" fill="#FFB703"/>
<path d="M80.002 69.8588V80.3588H69.502V83.3588H81.502C82.3304 83.3588 83.002 82.6872 83.002 81.8588V69.8588H80.002Z" fill="#FFB703"/>
<path d="M11.002 80.3588V69.8588H8.00195V81.8588C8.00195 82.6872 8.67358 83.3588 9.50196 83.3588H21.502V80.3588H11.002Z" fill="#FFB703"/>
</g>
<defs>
<clipPath id="clip0_201_4241">
<rect width="90" height="90" fill="white" transform="translate(0.501953 0.858643)"/>
</clipPath>
</defs>
</svg>
