<svg width="58" height="59" viewBox="0 0 58 59" fill="none" xmlns="http://www.w3.org/2000/svg">
<path d="M11.3589 43.4229C8.94219 40.7646 7.49219 37.8646 7.49219 33.0313C7.49219 24.5729 13.5339 17.0813 21.9922 13.2146L24.1672 16.3563C16.1922 20.7063 14.5005 26.2646 14.0172 29.8896C15.2255 29.1646 16.9172 28.9229 18.6089 29.1646C22.9589 29.6479 26.3422 33.0313 26.3422 37.6229C26.3422 39.7979 25.3755 41.9729 23.9255 43.6646C22.2339 45.3563 20.3005 46.0813 17.8839 46.0813C15.2255 46.0813 12.8089 44.8729 11.3589 43.4229ZM35.5255 43.4229C33.1089 40.7646 31.6589 37.8646 31.6589 33.0313C31.6589 24.5729 37.7005 17.0813 46.1589 13.2146L48.3339 16.3563C40.3589 20.7063 38.6672 26.2646 38.1839 29.8896C39.3922 29.1646 41.0839 28.9229 42.7755 29.1646C47.1255 29.6479 50.5089 33.0313 50.5089 37.6229C50.5089 39.7979 49.5422 41.9729 48.0922 43.6646C46.6422 45.3563 44.4672 46.0813 42.0505 46.0813C39.3922 46.0813 36.9755 44.8729 35.5255 43.4229Z" fill="#FFB703"/>
</svg>
