<svg width="26" height="27" viewBox="0 0 26 27" fill="none" xmlns="http://www.w3.org/2000/svg">
<g clip-path="url(#clip0_700_130)">
<path d="M20.5469 16.5284C20.0146 15.9742 19.3725 15.6779 18.6921 15.6779C18.0171 15.6779 17.3696 15.9687 16.8154 16.523L15.0813 18.2515C14.9387 18.1747 14.796 18.1034 14.6588 18.032C14.4613 17.9332 14.2747 17.84 14.1155 17.7412C12.4912 16.7095 11.0151 15.3651 9.59935 13.6256C8.91341 12.7586 8.45246 12.0287 8.11773 11.2879C8.5677 10.8763 8.98475 10.4483 9.39082 10.0368C9.54447 9.88311 9.69812 9.72398 9.85177 9.57033C11.0041 8.41796 11.0041 6.92536 9.85177 5.77299L8.35369 4.27491C8.18358 4.1048 8.00798 3.9292 7.84335 3.7536C7.5141 3.41338 7.16839 3.06218 6.81171 2.73293C6.27942 2.20613 5.64287 1.92627 4.9734 1.92627C4.30393 1.92627 3.65641 2.20613 3.10766 2.73293C3.10217 2.73842 3.10217 2.73842 3.09668 2.7439L1.23094 4.62611C0.528544 5.32851 0.127958 6.18455 0.0401583 7.17779C-0.0915412 8.78013 0.380382 10.2727 0.742555 11.2495C1.63153 13.6475 2.9595 15.87 4.94048 18.2515C7.34399 21.1215 10.2359 23.3878 13.5394 24.9847C14.8015 25.5828 16.4861 26.2907 18.3683 26.4114C18.4836 26.4169 18.6043 26.4224 18.714 26.4224C19.9817 26.4224 21.0462 25.9669 21.8803 25.0615C21.8858 25.0505 21.8968 25.045 21.9023 25.034C22.1876 24.6883 22.5169 24.3755 22.8626 24.0408C23.0985 23.8158 23.34 23.5799 23.576 23.3329C24.1192 22.7677 24.4046 22.1092 24.4046 21.4343C24.4046 20.7538 24.1137 20.1008 23.5595 19.552L20.5469 16.5284ZM22.5114 22.3068C22.5059 22.3068 22.5059 22.3123 22.5114 22.3068C22.2974 22.5372 22.0779 22.7458 21.8419 22.9762C21.4852 23.3165 21.1231 23.6731 20.7828 24.0737C20.2286 24.6664 19.5756 24.9462 18.7195 24.9462C18.6372 24.9462 18.5494 24.9462 18.4671 24.9408C16.8373 24.8365 15.3228 24.1999 14.1869 23.6567C11.081 22.1531 8.35369 20.0185 6.08736 17.3132C4.21613 15.0578 2.96498 12.9726 2.13638 10.7337C1.62604 9.36729 1.43947 8.30272 1.52178 7.29851C1.57665 6.65648 1.82359 6.12419 2.27905 5.66873L4.15028 3.7975C4.41917 3.54508 4.70451 3.40789 4.98438 3.40789C5.33009 3.40789 5.60995 3.61641 5.78555 3.79201C5.79104 3.7975 5.79652 3.80299 5.80201 3.80847C6.13675 4.12126 6.45502 4.44502 6.78976 4.79073C6.95987 4.96633 7.13547 5.14193 7.31107 5.32302L8.80915 6.8211C9.39082 7.40277 9.39082 7.94055 8.80915 8.52222C8.65001 8.68136 8.49636 8.84049 8.33722 8.99414C7.87628 9.46606 7.43728 9.90506 6.95987 10.3331C6.94889 10.3441 6.93792 10.3495 6.93243 10.3605C6.46051 10.8324 6.54831 11.2934 6.64708 11.6062C6.65257 11.6226 6.65806 11.6391 6.66354 11.6556C7.05316 12.5994 7.6019 13.4884 8.436 14.5475L8.44149 14.553C9.95603 16.4187 11.5529 17.8729 13.3144 18.9868C13.5394 19.1295 13.7698 19.2448 13.9893 19.3545C14.1869 19.4533 14.3735 19.5466 14.5326 19.6453C14.5545 19.6563 14.5765 19.6728 14.5984 19.6837C14.785 19.777 14.9606 19.8209 15.1417 19.8209C15.5972 19.8209 15.8825 19.5356 15.9758 19.4423L17.8525 17.5656C18.0391 17.379 18.3354 17.154 18.6811 17.154C19.0213 17.154 19.3012 17.368 19.4713 17.5546C19.4768 17.5601 19.4768 17.5601 19.4823 17.5656L22.5059 20.5892C23.0711 21.1489 23.0711 21.7251 22.5114 22.3068Z" fill="#FFB703"/>
<path d="M14.0492 6.60704C15.487 6.84849 16.793 7.52893 17.8356 8.57156C18.8782 9.61418 19.5532 10.9202 19.8001 12.3579C19.8605 12.7201 20.1733 12.9725 20.5299 12.9725C20.5738 12.9725 20.6123 12.967 20.6562 12.9615C21.0622 12.8957 21.3311 12.5116 21.2653 12.1055C20.9689 10.366 20.1458 8.78008 18.8892 7.52345C17.6326 6.26681 16.0467 5.44369 14.3071 5.14737C13.9011 5.08152 13.5224 5.35041 13.4511 5.75099C13.3798 6.15158 13.6432 6.54119 14.0492 6.60704Z" fill="#FFB703"/>
<path d="M25.9687 11.8915C25.4803 9.02705 24.1304 6.4205 22.0561 4.34623C19.9819 2.27196 17.3753 0.922043 14.5109 0.433657C14.1103 0.36232 13.7316 0.636694 13.6603 1.03728C13.5945 1.44335 13.8633 1.82199 14.2694 1.89333C16.8266 2.32684 19.1588 3.53957 21.0135 5.38885C22.8683 7.24362 24.0755 9.5758 24.509 12.133C24.5694 12.4951 24.8822 12.7476 25.2389 12.7476C25.2828 12.7476 25.3212 12.7421 25.3651 12.7366C25.7657 12.6762 26.0401 12.2921 25.9687 11.8915Z" fill="#FFB703"/>
</g>
<defs>
<clipPath id="clip0_700_130">
<rect width="26" height="26" fill="white" transform="translate(0 0.422363)"/>
</clipPath>
</defs>
</svg>
