<svg width="60" height="60" viewBox="0 0 60 60" fill="none" xmlns="http://www.w3.org/2000/svg">
<path d="M56.0633 43.5728C53.8542 41.3637 50.7542 40.5819 47.9087 41.2183L41.4815 34.791H49.8542V35.1092C49.8542 36.1455 50.6996 36.991 51.736 36.991H56.4269C57.4633 36.991 58.3087 36.1455 58.3087 35.1092V17.5092C58.3087 16.4728 57.4633 15.6274 56.4269 15.6274H51.736C50.6996 15.6274 49.8542 16.4728 49.8542 17.5092V17.8183H38.3269V9.86372H38.6451C39.6815 9.86372 40.5269 9.01827 40.5269 7.98191V3.291C40.5269 2.25463 39.6815 1.40918 38.6451 1.40918H21.036C19.9996 1.40918 19.1542 2.25463 19.1542 3.291V7.98191C19.1542 9.01827 19.9996 9.86372 21.036 9.86372H21.3542V17.8183H9.82692V17.5092C9.82692 16.4728 8.98146 15.6274 7.9451 15.6274H3.2451C2.20874 15.6274 1.36328 16.4728 1.36328 17.5092V35.1092C1.36328 36.1455 2.20874 36.991 3.2451 36.991H7.93601C8.97237 36.991 9.81783 36.1455 9.81783 35.1092V34.791H20.8815C19.9724 36.4274 18.3269 39.5728 18.3269 40.9546C18.3269 42.9819 19.9815 44.6365 22.0087 44.6365C24.036 44.6365 25.6906 42.9819 25.6906 40.9546C25.6906 39.791 24.5269 37.3819 23.6087 35.6728C25.0269 36.5546 26.636 37.0001 28.2451 37.0001C28.8906 37.0001 29.5451 36.9183 30.1815 36.7819L41.2542 47.8546C41.1087 48.4819 41.036 49.1365 41.036 49.791C41.036 52.1455 41.9542 54.3546 43.6178 56.0092C45.2815 57.6728 47.4906 58.5819 49.836 58.5819C52.1815 58.5819 54.3906 57.6637 56.0542 56.0092C59.4906 52.5819 59.4906 47.0001 56.0633 43.5728ZM51.736 16.9365H56.4269C56.7451 16.9365 56.9996 17.191 56.9996 17.5092V35.1092C56.9996 35.4274 56.7451 35.6819 56.4269 35.6819H51.736C51.4269 35.6819 51.1724 35.4274 51.1724 35.1092V34.1455V34.1365V18.4819V18.4728V17.5183C51.1633 17.2001 51.4178 16.9365 51.736 16.9365ZM20.4633 7.98191V3.291C20.4633 2.98191 20.7269 2.72736 21.036 2.72736H38.636C38.9542 2.72736 39.2087 2.98191 39.2087 3.291V7.98191C39.2087 8.30009 38.9542 8.55463 38.636 8.55463H37.6724H37.6633H22.0087H21.9996H21.036C20.7269 8.55463 20.4633 8.30009 20.4633 7.98191ZM22.6633 9.86372H37.0087V17.8183H22.6633V9.86372ZM7.93601 35.6819H3.2451C2.93601 35.6819 2.68146 35.4274 2.68146 35.1092V17.5092C2.68146 17.191 2.93601 16.9365 3.2451 16.9365H7.93601C8.25419 16.9365 8.50874 17.191 8.50874 17.5092V18.4728V18.4819V34.1455V34.1546V35.1274C8.50874 35.4274 8.25419 35.6819 7.93601 35.6819ZM9.82692 19.1365H21.9906C21.9996 19.1365 22.0087 19.1455 22.0178 19.1455H37.6724C37.6815 19.1455 37.6906 19.1365 37.6996 19.1365H49.8633V33.4819H40.1724L36.8269 30.1365C37.4633 27.291 36.6906 24.191 34.4815 21.9819C32.4542 19.9546 29.5542 19.0365 26.736 19.5365C26.4996 19.5819 26.2996 19.7546 26.2269 19.9819C26.1542 20.2092 26.2178 20.4728 26.3906 20.6455L30.6087 24.8637L29.4087 29.3455L24.9269 30.5455L20.7087 26.3274C20.536 26.1546 20.2815 26.091 20.0451 26.1637C19.8087 26.2365 19.636 26.4365 19.5996 26.6728C19.1724 29.0819 19.7906 31.5455 21.236 33.4728H9.82692V19.1365ZM22.0087 43.3274C20.6996 43.3274 19.636 42.2637 19.636 40.9546C19.636 40.0364 20.9178 37.4183 22.0087 35.4637C23.0906 37.4183 24.3815 40.0364 24.3815 40.9546C24.3815 42.2637 23.3178 43.3274 22.0087 43.3274ZM22.9633 33.5001C21.5633 32.1001 20.7815 30.2092 20.7724 28.2546L24.2633 31.7455C24.4269 31.9092 24.6724 31.9728 24.8996 31.9183L30.1087 30.5274C30.336 30.4637 30.5087 30.291 30.5724 30.0637L31.9724 24.8455C32.036 24.6183 31.9724 24.3819 31.7996 24.2092L28.3087 20.7183C30.2542 20.7274 32.1451 21.5092 33.5542 22.9092C36.4724 25.8274 36.4724 30.5728 33.5542 33.5001C30.6269 36.4183 25.8724 36.4183 22.9633 33.5001ZM31.5996 36.3365C32.6451 35.9092 33.6178 35.2728 34.4724 34.4274C35.3178 33.5819 35.9542 32.6001 36.3815 31.5546L46.4906 41.6637C45.4451 42.091 44.4633 42.7274 43.6178 43.5728C42.7815 44.4092 42.136 45.3819 41.6996 46.4365L31.5996 36.3365ZM55.1269 55.0819C53.7178 56.5001 51.836 57.2728 49.836 57.2728C47.836 57.2728 45.9542 56.491 44.5451 55.0819C41.6269 52.1637 41.6269 47.4092 44.5451 44.491C46.0087 43.0274 47.9269 42.3001 49.8451 42.3001C51.7633 42.3001 53.6815 43.0274 55.136 44.491C58.0542 47.4183 58.0542 52.1637 55.1269 55.0819Z" fill="#FFB703"/>
<path d="M46.5182 46.4727C45.6364 47.3545 45.1455 48.5364 45.1455 49.7909C45.1455 51.0455 45.6364 52.2273 46.5182 53.1091C47.4364 54.0273 48.6364 54.4818 49.8364 54.4818C51.0364 54.4818 52.2364 54.0273 53.1546 53.1091C54.0455 52.2182 54.5273 51.0455 54.5273 49.7909C54.5273 48.5364 54.0364 47.3545 53.1546 46.4727C51.3273 44.6364 48.3455 44.6364 46.5182 46.4727ZM52.2273 52.1818C50.9091 53.5 48.7637 53.5 47.4455 52.1818C46.8091 51.5455 46.4546 50.6909 46.4546 49.7909C46.4546 48.8909 46.8091 48.0364 47.4455 47.4C48.1091 46.7364 48.9728 46.4091 49.8364 46.4091C50.7001 46.4091 51.5728 46.7364 52.2273 47.4C52.8637 48.0364 53.2182 48.8909 53.2182 49.7909C53.2182 50.6909 52.8728 51.5455 52.2273 52.1818Z" fill="#1E1E1E"/>
<path d="M27.6904 44.5366C27.3723 45.082 24.5723 49.8911 24.5723 51.682C24.5723 53.7093 26.2268 55.3638 28.2541 55.3638C30.2814 55.3638 31.9359 53.7093 31.9359 51.682C31.9359 49.882 29.1359 45.0729 28.8177 44.5366C28.5814 44.1366 27.9177 44.1366 27.6904 44.5366ZM28.2541 54.0548C26.945 54.0548 25.8814 52.9911 25.8814 51.682C25.8814 50.7638 27.1632 48.1457 28.2541 46.1911C29.3359 48.1457 30.6268 50.7638 30.6268 51.682C30.6177 52.9911 29.5541 54.0548 28.2541 54.0548Z" fill="#1E1E1E"/>
</svg>
