<svg width="26" height="27" viewBox="0 0 26 27" fill="none" xmlns="http://www.w3.org/2000/svg">
<path d="M24.2667 18.5682H23.2917V14.9813C23.2917 13.4294 21.8091 12.0682 20.1191 12.0682H13.5417V8.81824H15.0584C16.0149 8.81647 16.7899 8.04144 16.7917 7.08493V3.50993C16.7899 2.55336 16.0149 1.77839 15.0584 1.77661H10.9417C9.98512 1.77839 9.21014 2.55341 9.20837 3.50993V7.08493C9.21014 8.04149 9.98517 8.81647 10.9417 8.81824H12.4584V12.0682H5.88088C4.19088 12.0682 2.70832 13.4294 2.70832 14.9813V18.5682H1.73332C0.776801 18.5701 0.00177734 19.345 0 20.3016V23.3349C0.00177734 24.2915 0.776801 25.0665 1.73332 25.0682H4.76663C5.7232 25.0665 6.49817 24.2914 6.49995 23.3349V20.3016C6.49817 19.345 5.72315 18.5701 4.76663 18.5683H3.79163V14.9814C3.79163 13.9338 4.89445 13.1516 5.88082 13.1516H12.4583V18.5683H11.4833C10.5267 18.5701 9.75173 19.3451 9.74995 20.3016V23.3349C9.75173 24.2915 10.5268 25.0665 11.4833 25.0682H14.5166C15.4731 25.0665 16.2481 24.2914 16.2499 23.3349V20.3016C16.2481 19.345 15.4731 18.5701 14.5166 18.5683H13.5416V13.1516H20.119C21.1054 13.1516 22.2082 13.9338 22.2082 14.9814V18.5683H21.2332C20.2766 18.5701 19.5017 19.3451 19.4999 20.3016V23.3349C19.5017 24.2915 20.2767 25.0665 21.2332 25.0682H24.2665C25.2231 25.0665 25.9981 24.2914 25.9998 23.3349V20.3016C25.9982 19.345 25.2232 18.5701 24.2667 18.5682ZM4.76668 19.6516C5.12566 19.6516 5.41668 19.9426 5.41668 20.3016V23.3349C5.41668 23.6939 5.12566 23.9849 4.76668 23.9849H1.73332C1.37434 23.9849 1.08332 23.6939 1.08332 23.3349V20.3016C1.08332 19.9426 1.37434 19.6516 1.73332 19.6516H4.76668ZM14.5167 19.6516C14.8757 19.6516 15.1667 19.9426 15.1667 20.3016V23.3349C15.1667 23.6939 14.8757 23.9849 14.5167 23.9849H11.4834C11.1244 23.9849 10.8334 23.6939 10.8334 23.3349V20.3016C10.8334 19.9426 11.1244 19.6516 11.4834 19.6516H14.5167ZM10.9417 7.73493C10.5827 7.73493 10.2917 7.4439 10.2917 7.08493V3.50993C10.2917 3.15096 10.5827 2.85993 10.9417 2.85993H15.0584C15.4173 2.85993 15.7084 3.15096 15.7084 3.50993V7.08493C15.7084 7.4439 15.4173 7.73493 15.0584 7.73493H10.9417ZM24.9167 23.3349C24.9167 23.6939 24.6257 23.9849 24.2667 23.9849H21.2334C20.8744 23.9849 20.5834 23.6939 20.5834 23.3349V20.3016C20.5834 19.9426 20.8744 19.6516 21.2334 19.6516H24.2667C24.6257 19.6516 24.9167 19.9426 24.9167 20.3016V23.3349Z" fill="#FFB703"/>
</svg>
