<svg width="50" height="51" viewBox="0 0 50 51" fill="none" xmlns="http://www.w3.org/2000/svg">
<path d="M3.41797 22.572V45.0281L17.854 33.8001L3.41797 22.572Z" fill="#FFB703"/>
<path d="M41.0811 16.73V23.6342L45.3444 20.3183L41.0811 16.73Z" fill="#FFB703"/>
<path d="M25.8178 3.88335C25.3453 3.48582 24.6552 3.48582 24.1828 3.88335L20.8164 6.7167H29.1841L25.8178 3.88335Z" fill="#FFB703"/>
<path d="M8.91959 16.73L4.65625 20.3183L8.91959 23.6342V16.73Z" fill="#FFB703"/>
<path d="M20.3574 35.0696L5.12305 46.9185H44.877L29.6426 35.0696H20.3574Z" fill="#FFB703"/>
<path d="M32.1465 33.8002L46.5826 45.0283V22.572L32.1465 33.8002Z" fill="#FFB703"/>
<path d="M24.6799 18.7659C23.6501 18.7659 22.585 19.7671 22.585 21.4426C22.585 23.1459 23.6239 24.2902 24.5944 24.2902C25.6163 24.2902 26.4542 23.0945 26.5145 21.5913L26.5161 21.2721C26.4705 19.7889 25.7283 18.7659 24.6799 18.7659Z" fill="#1E1E1E"/>
<path d="M29.6423 32.5306L38.5414 25.609V10.5254C38.5414 9.82427 37.9729 9.25586 37.2718 9.25586H12.7275C12.0264 9.25586 11.458 9.82427 11.458 10.5254V25.6091L20.3571 32.5306H29.6423ZM16.0502 23.89C15.4439 21.585 15.7488 19.1549 16.9087 17.0476C18.0681 14.941 19.9575 13.3827 22.2289 12.6596C24.6252 11.8967 27.1696 12.1214 29.393 13.2925C31.6168 14.4637 33.2415 16.4337 33.9676 18.8396C33.9715 18.8527 33.9753 18.8659 33.9787 18.8791C34.4613 20.6869 34.3185 22.3935 33.5154 24.4125C32.9727 25.7771 31.642 27.2354 29.535 27.2354C28.7705 27.2354 28.0375 26.9219 27.471 26.3526C27.3369 26.2178 27.2161 26.0711 27.1079 25.9156C26.3964 26.4943 25.5336 26.8291 24.5943 26.8291C23.3672 26.8291 22.1742 26.2335 21.3212 25.1948C20.4987 24.1934 20.0458 22.8608 20.0458 21.4424C20.0458 20.0177 20.5277 18.6993 21.4028 17.7303C22.2658 16.7748 23.4602 16.2267 24.6798 16.2267C25.3505 16.2267 25.9879 16.3866 26.5606 16.6878C26.6717 16.0993 27.1875 15.6547 27.807 15.6547H27.8134C28.5145 15.6582 29.0801 16.2294 29.0767 16.9305L29.0417 23.9836C29.0406 24.2002 29.1263 24.4162 29.2708 24.5614C29.3208 24.6118 29.4217 24.6962 29.535 24.6962C30.5594 24.6962 31.01 23.8414 31.1561 23.474C31.7491 21.983 31.8615 20.809 31.5307 19.5534C30.9998 17.8128 29.8211 16.3876 28.2099 15.539C26.593 14.6874 24.7422 14.5242 22.9991 15.0789C19.563 16.1728 17.5893 19.7593 18.5058 23.2441C19.2668 26.1379 21.8826 28.2167 24.867 28.2993C25.5678 28.3186 26.1203 28.9025 26.1009 29.6034C26.0818 30.2923 25.5173 30.8378 24.8325 30.8378C24.8206 30.8378 24.8087 30.8376 24.7967 30.8373C22.8294 30.7829 20.8873 30.0841 19.3283 28.8694C17.7085 27.6076 16.5751 25.8858 16.0502 23.89Z" fill="#1E1E1E"/>
</svg>
