<svg width="26" height="27" viewBox="0 0 26 27" fill="none" xmlns="http://www.w3.org/2000/svg">
<path d="M13.8125 21.5474H7.3125C5.96863 21.5474 4.875 20.4537 4.875 19.1099V5.29736C4.875 3.95349 5.96863 2.85986 7.3125 2.85986H17.0625C18.4064 2.85986 19.5 3.95349 19.5 5.29736V9.40861C19.5 9.85711 19.8632 10.2211 20.3125 10.2211C20.7618 10.2211 21.125 9.85711 21.125 9.40861V5.29736C21.125 3.0573 19.3026 1.23486 17.0625 1.23486H7.3125C5.07244 1.23486 3.25 3.0573 3.25 5.29736V19.1099C3.25 21.3499 5.07244 23.1724 7.3125 23.1724H13.8125C14.2618 23.1724 14.625 22.8084 14.625 22.3599C14.625 21.9114 14.2618 21.5474 13.8125 21.5474Z" fill="#FFB703"/>
<path d="M8.125 7.73486H13.8125C14.2618 7.73486 14.625 7.37086 14.625 6.92236C14.625 6.47386 14.2618 6.10986 13.8125 6.10986H8.125C7.67569 6.10986 7.3125 6.47386 7.3125 6.92236C7.3125 7.37086 7.67569 7.73486 8.125 7.73486Z" fill="#FFB703"/>
<path d="M15.73 10.9849C15.73 10.5364 15.3668 10.1724 14.9175 10.1724H8.125C7.67569 10.1724 7.3125 10.5364 7.3125 10.9849C7.3125 11.4334 7.67569 11.7974 8.125 11.7974H14.9175C15.3668 11.7974 15.73 11.4334 15.73 10.9849Z" fill="#FFB703"/>
<path d="M13.4225 14.2349C13.4225 13.7864 13.0593 13.4224 12.61 13.4224H8.125C7.67569 13.4224 7.3125 13.7864 7.3125 14.2349C7.3125 14.6834 7.67569 15.0474 8.125 15.0474H12.61C13.0593 15.0474 13.4225 14.6834 13.4225 14.2349Z" fill="#FFB703"/>
<path d="M8.125 16.6724C7.67569 16.6724 7.3125 17.0364 7.3125 17.4849C7.3125 17.9334 7.67569 18.2974 8.125 18.2974H12.2363C12.6856 18.2974 13.0487 17.9334 13.0487 17.4849C13.0487 17.0364 12.6856 16.6724 12.2363 16.6724H8.125Z" fill="#FFB703"/>
<path d="M24.375 16.6724C24.375 13.9838 22.1886 11.7974 19.5 11.7974C16.8114 11.7974 14.625 13.9838 14.625 16.6724C14.625 18.1113 15.2555 19.4024 16.25 20.2961V24.3887C16.25 24.8388 16.4978 25.2516 16.8951 25.4644C17.2949 25.6789 17.7726 25.6554 18.1496 25.4043L19.5 24.4976L20.8536 25.4059C21.0568 25.5416 21.2907 25.6091 21.5264 25.6091C21.7238 25.6091 21.9229 25.5611 22.1049 25.4636C22.5022 25.2507 22.75 24.838 22.75 24.3879V20.2953C23.7445 19.4024 24.375 18.1121 24.375 16.6724ZM21.125 23.6306L19.9534 22.8441C19.6788 22.6597 19.3221 22.6597 19.0474 22.8441L17.8758 23.6306V21.263C18.3852 21.4442 18.9304 21.5474 19.5008 21.5474C20.0712 21.5474 20.6164 21.4434 21.1258 21.263L21.125 23.6306ZM19.5 19.9224C17.7076 19.9224 16.25 18.4647 16.25 16.6724C16.25 14.88 17.7076 13.4224 19.5 13.4224C21.2924 13.4224 22.75 14.88 22.75 16.6724C22.75 18.4647 21.2924 19.9224 19.5 19.9224Z" fill="#FFB703"/>
</svg>
