<svg width="50" height="51" viewBox="0 0 50 51" fill="none" xmlns="http://www.w3.org/2000/svg">
<path d="M38.1061 33.5519C36.2515 31.7111 33.2568 31.7111 31.4022 33.5519L30.2755 34.692C29.2728 35.6947 27.6929 35.8459 26.5252 35.0492C22.0604 31.9992 18.255 28.1941 15.2051 23.7292C14.4085 22.5614 14.5593 20.9816 15.5624 19.9789L16.7025 18.8522C18.5433 16.9976 18.5433 14.0029 16.7025 12.1482L14.3122 9.77174C12.4714 7.91712 9.46283 7.91712 7.5257 9.86803C2.6346 14.7585 1.93396 22.3413 5.87683 27.9055C10.4103 34.3075 15.9463 39.8434 22.3482 44.3769C24.7662 46.0804 27.5548 46.9184 30.357 46.9184C33.9838 46.9184 37.6243 45.5036 40.3857 42.7284L40.482 42.6321C42.3228 40.7913 42.3228 37.7827 40.482 35.9416L38.1055 33.5512L38.1061 33.5519Z" fill="#FFB703"/>
<path d="M45.2952 24.1921C46.0548 24.1921 46.669 23.5779 46.669 22.8183C46.669 17.6706 44.6675 12.8406 41.0337 9.22325C37.4125 5.5882 32.5837 3.58521 27.4363 3.58521C26.6767 3.58521 26.0625 4.19942 26.0625 4.959C26.0625 5.71857 26.6767 6.33279 27.4363 6.33279C31.849 6.33279 35.9868 8.04729 39.0916 11.1659C42.2074 14.2692 43.9219 18.4071 43.9219 22.818C43.9219 23.5776 44.5361 24.1918 45.2957 24.1918L45.2952 24.1921Z" fill="#1E1E1E"/>
<path d="M39.7874 24.192C40.547 24.192 41.1612 23.5778 41.1612 22.8182C41.1612 19.1473 39.7353 15.6993 37.1457 13.1098C34.5548 10.5202 31.1065 9.09424 27.4373 9.09424C26.6777 9.09424 26.0635 9.70846 26.0635 10.468C26.0635 11.2276 26.6777 11.8418 27.4373 11.8418C30.3744 11.8418 33.133 12.9819 35.2032 15.0524C37.2734 17.1242 38.4138 19.8828 38.4138 22.8184C38.4138 23.5779 39.0279 24.192 39.7874 24.192Z" fill="#1E1E1E"/>
<path d="M27.4363 14.5754C26.6767 14.5754 26.0625 15.1897 26.0625 15.9492C26.0625 16.7088 26.6767 17.323 27.4363 17.323C28.8993 17.323 30.2841 17.8946 31.3228 18.9207C32.3599 19.9704 32.9315 21.3537 32.9315 22.8182C32.9315 23.5778 33.5457 24.192 34.3053 24.192C35.0648 24.192 35.6791 23.5778 35.6791 22.8182C35.6791 20.6256 34.826 18.5554 33.2654 16.9783C31.6978 15.4288 29.6289 14.5754 27.4363 14.5754Z" fill="#1E1E1E"/>
</svg>
