<svg width="60" height="61" viewBox="0 0 60 61" fill="none" xmlns="http://www.w3.org/2000/svg">
<g clip-path="url(#clip0_163_24680)">
<path d="M21.8279 37.6463C21.5168 36.9004 20.7863 36.4154 19.9781 36.4177C19.1694 36.4201 18.4421 36.9093 18.1352 37.657L15.5442 44.0821L14.7815 45.9171C14.0612 47.6651 14.2063 49.6497 15.1722 51.275C16.0575 52.7965 17.6158 53.8037 19.3666 53.986C19.5717 54.0074 19.7777 54.0181 19.9837 54.0181C20.1892 54.0181 20.3947 54.0074 20.5989 53.9865C22.3506 53.8046 23.9103 52.7974 24.7956 51.275C25.7619 49.6502 25.9066 47.6651 25.1863 45.9171L21.8279 37.6463ZM23.0783 50.2519C22.5138 51.2294 21.5164 51.8786 20.3943 51.9985C20.1208 52.0269 19.8451 52.0269 19.5717 51.9985C18.45 51.8781 17.4535 51.2289 16.889 50.2519C16.2449 49.1703 16.1478 47.8483 16.6267 46.6839L19.9795 38.4043L22.5785 44.8494L23.3411 46.6839C23.82 47.8483 23.7229 49.1703 23.0783 50.2519Z" fill="#1E1E1E"/>
<path d="M5.99495 34.0342C5.44344 34.0342 4.99609 34.4815 4.99609 35.0335V36.0328C4.99609 36.5843 5.44344 37.0317 5.99495 37.0317C6.54692 37.0317 6.99426 36.5843 6.99426 36.0328V35.0335C6.99426 34.4815 6.54692 34.0342 5.99495 34.0342Z" fill="white"/>
<path d="M5.99495 39.0303C5.44344 39.0303 4.99609 39.4776 4.99609 40.0296V53.0189C4.99609 53.5708 5.44344 54.0182 5.99495 54.0182C6.54692 54.0182 6.99426 53.5708 6.99426 53.0189V40.0296C6.99426 39.4776 6.54692 39.0303 5.99495 39.0303Z" fill="white"/>
<path d="M54.3658 32.5115C51.918 31.2523 49.8003 30.1358 49.0335 27.6772L53.5897 23.121C53.9645 22.7462 54.1752 22.238 54.1752 21.7078C54.1752 21.1777 53.9645 20.6695 53.5897 20.2947L47.2316 13.9356C46.7656 13.4696 46.0997 13.2641 45.452 13.3855L36.7222 0.914699C36.3832 0.430619 35.848 0.120919 35.2593 0.069302C34.6706 0.0181503 34.0898 0.229267 33.6717 0.647316L22.3296 11.9895C21.7009 12.6215 21.5651 13.5929 21.9957 14.3732L23.4637 17.0163L20.821 15.5473C20.0403 15.1177 19.0698 15.2539 18.4369 15.8817L15.5734 18.7457C15.4497 18.8727 15.3432 19.0159 15.2576 19.1712C10.9102 19.4097 0 20.3742 0 24.0422V28.039C0.0325511 28.7589 0.403168 29.4206 0.999317 29.8252V55.2047C1.00536 55.2615 1.01652 55.3173 1.03326 55.3722L1.03559 55.3856C1.04907 55.4749 1.07465 55.5619 1.11139 55.6437C2.30973 59.0723 13.3222 60.013 19.9836 60.013C27.035 60.013 38.9683 58.9607 38.9683 55.0169V37.7425L42.6033 34.1075C45.0614 34.8743 46.1783 36.9915 47.4376 39.4398C48.0951 40.8521 48.9168 42.1815 49.8854 43.4013C50.7652 44.4248 52.0347 45.0302 53.3833 45.0702C53.4446 45.0721 53.506 45.0735 53.5674 45.0735C54.9057 45.0721 56.1892 44.541 57.1364 43.5956L58.5226 42.2104C59.5126 41.2176 60.0465 39.8588 59.9967 38.4572C59.9572 37.1087 59.3513 35.8392 58.3282 34.9598C57.108 33.9908 55.7781 33.1691 54.3658 32.5115ZM52.1775 21.7069L36.6334 37.2514L30.2748 30.8924L45.8189 15.3488L52.1775 21.7069ZM2.58781 28.5031C2.36088 28.391 2.15999 28.232 1.9991 28.0367L1.99817 28.0372V26.4738C2.3925 26.6672 2.79846 26.8356 3.21372 26.9788L3.25743 26.9937L3.26069 26.9951C6.79248 28.2743 13.0362 29.0383 19.9836 29.0383C21.9696 29.0383 23.9548 28.9658 25.8967 28.8351L28.3124 30.5264C28.3069 30.5552 28.3083 30.585 28.3041 30.6143C25.5396 30.8975 22.7625 31.0384 19.9836 31.0365C12.2378 31.0365 5.08959 29.9972 2.58781 28.5031ZM20.4858 25.0471L23.241 26.9755C22.1598 27.0165 21.0722 27.0397 19.9836 27.0397C15.8114 27.076 11.644 26.7416 7.53045 26.0404C11.644 25.3396 15.8114 25.0053 19.9836 25.0415C20.1542 25.0443 20.3193 25.0457 20.4853 25.0471H20.4858ZM19.8501 17.2944L25.5503 20.4611C25.9404 20.6783 26.4268 20.6099 26.7426 20.2947C27.0578 19.9789 27.1262 19.4921 26.909 19.1024L23.7427 13.4022L28.0883 9.05665L34.453 16.6945C34.6785 16.9782 35.0403 17.1172 35.3974 17.0582C35.755 16.9991 36.0526 16.7513 36.1749 16.4104C36.2977 16.0695 36.2261 15.6887 35.988 15.4157L29.5071 7.63789L35.0849 2.06003L43.8123 14.5285L29.4541 28.8868L16.9861 20.1589L19.8501 17.2944ZM15.2674 21.1759C15.412 21.4209 15.6073 21.6325 15.8403 21.7962L17.6655 23.0731C11.8593 23.2182 6.74272 23.9055 3.57829 24.9783C2.98865 24.8021 2.44784 24.4919 1.99817 24.0715V24.0664C2.30275 23.2703 6.49068 21.6558 15.2674 21.1759ZM19.9836 58.0148C9.40632 58.0148 3.31416 56.059 2.99749 55.0057V30.8919C6.44325 32.213 12.7995 33.0347 19.9836 33.0347C23.0285 33.0389 26.0706 32.8743 29.0969 32.5408L35.2202 38.6642C35.5941 39.0404 36.1028 39.251 36.6334 39.2496C36.7464 39.2482 36.859 39.2371 36.9701 39.2166V55.0034C36.6632 56.0562 30.5706 58.0148 19.9836 58.0148ZM57.1094 40.7976L55.7237 42.1834C55.1234 42.78 54.3031 43.1018 53.4572 43.073C52.6644 43.0516 51.9171 42.6972 51.3986 42.0969C50.535 40.9948 49.8022 39.7965 49.2144 38.5256C48.0574 36.2758 46.7708 33.7741 44.162 32.5487L47.4743 29.236C48.6996 31.8452 51.201 33.1314 53.4512 34.2888C54.722 34.8766 55.9204 35.6095 57.0225 36.473C57.6228 36.9915 57.9771 37.7383 57.999 38.5312C58.0288 39.3775 57.707 40.1978 57.1094 40.7976Z" fill="white"/>
<path d="M34.5137 29.4792L33.8074 30.1856C33.5484 30.4367 33.4451 30.8078 33.5367 31.1565C33.6283 31.5053 33.9004 31.7778 34.2491 31.8694C34.5979 31.961 34.969 31.8573 35.2201 31.5988L35.9269 30.8924C36.3087 30.5004 36.3045 29.875 35.9181 29.4881C35.5312 29.1016 34.9053 29.0975 34.5137 29.4792Z" fill="#1E1E1E"/>
<path d="M45.1114 18.8816L37.3401 26.6534C37.0811 26.9045 36.9778 27.2756 37.0695 27.6243C37.1611 27.9731 37.4336 28.2456 37.7823 28.3372C38.1311 28.4288 38.5022 28.3251 38.7533 28.0666L46.5246 20.2943C46.7831 20.0432 46.8868 19.6721 46.7952 19.3234C46.7036 18.9746 46.4311 18.7021 46.0824 18.611C45.7336 18.5193 45.3625 18.6226 45.1114 18.8816Z" fill="#1E1E1E"/>
</g>
<defs>
<clipPath id="clip0_163_24680">
<rect width="60" height="60" fill="white" transform="translate(0 0.0600586)"/>
</clipPath>
</defs>
</svg>
