<svg width="60" height="60" viewBox="0 0 60 60" fill="none" xmlns="http://www.w3.org/2000/svg">
<g clip-path="url(#clip0_660_951)">
<path d="M60 32.8125C60 31.2593 58.7407 30 57.1875 30H30.9375C29.5372 29.9963 28.3488 31.0263 28.1529 32.4129C27.957 33.799 28.8139 35.1178 30.1602 35.5023L31.3989 40.9689C29.2213 40.3967 27.3477 39.0092 26.1658 37.093C26.2193 36.9214 26.2482 36.7424 26.25 36.5625V3.75C26.25 1.67908 24.5709 0 22.5 0C20.4291 0 18.75 1.67908 18.75 3.75V36.5625C18.7523 36.741 18.7811 36.9182 18.8342 37.0885C17.2449 39.6661 14.437 41.2399 11.4084 41.25H11.25C10.7323 41.25 10.3125 41.6698 10.3125 42.1875V44.0625H0.9375C0.419769 44.0625 0 44.4823 0 45V49.6875C0 50.2052 0.419769 50.625 0.9375 50.625H1.90018C0.344696 53.3144 0.605621 56.684 2.55661 59.1019L2.99332 59.6484C3.17139 59.8705 3.44009 60 3.72482 60H41.2248H41.25H51.6618C52.0999 60.0005 52.4799 59.697 52.5769 59.2699L54.9083 48.9825C56.5924 48.5083 57.9337 47.2339 58.4935 45.5763C59.0533 43.9192 58.7595 42.0923 57.708 40.6943L57.0007 39.7568L57.9648 35.5069C59.1669 35.1613 59.9963 34.0631 60 32.8125ZM20.625 3.75C20.625 2.71454 21.4645 1.875 22.5 1.875C23.5355 1.875 24.375 2.71454 24.375 3.75V36.5625H20.625V3.75ZM12.1875 43.0962C15.4294 42.8462 18.3806 41.131 20.202 38.4375H24.7961C26.618 41.1314 29.5697 42.8467 32.8125 43.0962V44.0625H12.1875V43.0962ZM1.875 48.75V45.9375H43.125V48.75H1.875ZM40.8188 58.125H4.1748L4.01917 57.93C2.34512 55.8554 2.34512 52.8946 4.01917 50.82L4.1748 50.625H40.8188C42.6938 52.7733 42.6938 55.9767 40.8188 58.125ZM50.9138 58.125H43.0792C44.4086 55.8037 44.4168 52.9536 43.0998 50.625H44.0625C44.5802 50.625 45 50.2052 45 49.6875V45C45 44.4823 44.5802 44.0625 44.0625 44.0625H34.6875V42.1875C34.6875 41.6698 34.2677 41.25 33.75 41.25H33.5916C33.5211 41.25 33.4538 41.2376 33.3833 41.2358L32.1112 35.625H39.375V38.4375C39.375 38.9552 39.7948 39.375 40.3125 39.375H42.6901L49.4064 47.3099C50.2995 48.3659 51.5703 49.0302 52.9472 49.1615L50.9138 58.125ZM41.25 37.5V35.625H45V37.5H41.25ZM53.3652 47.3071C52.3878 47.2842 51.4668 46.8448 50.8342 46.0995L45.146 39.375H45.9375C46.4552 39.375 46.875 38.9552 46.875 38.4375V35.625H56.0138L53.3652 47.3071ZM56.0674 46.1156C55.8788 46.3289 55.6645 46.5175 55.4297 46.6782L56.4459 42.1957C57.1651 43.4505 57.0131 45.022 56.0674 46.1156ZM57.1875 33.75H30.9375C30.4198 33.75 30 33.3302 30 32.8125C30 32.2948 30.4198 31.875 30.9375 31.875H57.1875C57.7052 31.875 58.125 32.2948 58.125 32.8125C58.125 33.3302 57.7052 33.75 57.1875 33.75Z" fill="#FFB703"/>
<path d="M55.7813 28.125C53.969 28.125 52.5 26.656 52.5 24.8438C52.5 23.0315 53.969 21.5625 55.7813 21.5625C57.5935 21.5625 59.0625 23.0315 59.0625 24.8438C59.0625 26.656 57.5935 28.125 55.7813 28.125ZM55.7813 23.4375C55.0044 23.4375 54.375 24.0669 54.375 24.8438C54.375 25.6206 55.0044 26.25 55.7813 26.25C56.5581 26.25 57.1875 25.6206 57.1875 24.8438C57.1875 24.0669 56.5581 23.4375 55.7813 23.4375Z" fill="#1E1E1E"/>
<path d="M48.75 20.625C46.6791 20.625 45 18.9459 45 16.875C45 14.8041 46.6791 13.125 48.75 13.125C50.8209 13.125 52.5 14.8041 52.5 16.875C52.5 18.9459 50.8209 20.625 48.75 20.625ZM48.75 15C47.7145 15 46.875 15.8395 46.875 16.875C46.875 17.9105 47.7145 18.75 48.75 18.75C49.7855 18.75 50.625 17.9105 50.625 16.875C50.625 15.8395 49.7855 15 48.75 15Z" fill="#1E1E1E"/>
<path d="M6.5625 30.9375H8.4375V32.8125H6.5625V30.9375Z" fill="#1E1E1E"/>
<path d="M9.375 33.75H11.25V35.625H9.375V33.75Z" fill="#1E1E1E"/>
<path d="M6.5625 36.5625H8.4375V38.4375H6.5625V36.5625Z" fill="#1E1E1E"/>
<path d="M3.75 33.75H5.625V35.625H3.75V33.75Z" fill="#1E1E1E"/>
<path d="M32.8125 20.625H34.6875V22.5H32.8125V20.625Z" fill="#1E1E1E"/>
<path d="M35.625 23.4375H37.5V25.3125H35.625V23.4375Z" fill="#1E1E1E"/>
<path d="M32.8125 26.25H34.6875V28.125H32.8125V26.25Z" fill="#1E1E1E"/>
<path d="M30 23.4375H31.875V25.3125H30V23.4375Z" fill="#1E1E1E"/>
<path d="M12.1875 26.25C11.6698 26.25 11.25 25.8302 11.25 25.3125C11.25 23.7593 9.99069 22.5 8.4375 22.5C7.91977 22.5 7.5 22.0802 7.5 21.5625C7.5 21.0448 7.91977 20.625 8.4375 20.625C9.99069 20.625 11.25 19.3657 11.25 17.8125C11.25 17.2948 11.6698 16.875 12.1875 16.875C12.7052 16.875 13.125 17.2948 13.125 17.8125C13.125 19.3657 14.3843 20.625 15.9375 20.625C16.4552 20.625 16.875 21.0448 16.875 21.5625C16.875 22.0802 16.4552 22.5 15.9375 22.5C14.3843 22.5 13.125 23.7593 13.125 25.3125C13.125 25.8302 12.7052 26.25 12.1875 26.25ZM11.25 21.5625C11.6052 21.8294 11.9206 22.1448 12.1875 22.5C12.4544 22.1448 12.7698 21.8294 13.125 21.5625C12.7698 21.2956 12.4544 20.9802 12.1875 20.625C11.9206 20.9802 11.6052 21.2956 11.25 21.5625Z" fill="#1E1E1E"/>
<path d="M40.3125 10.3125C39.7948 10.3125 39.375 9.89273 39.375 9.375C39.375 7.82181 38.1157 6.5625 36.5625 6.5625C36.0448 6.5625 35.625 6.14273 35.625 5.625C35.625 5.10727 36.0448 4.6875 36.5625 4.6875C38.1157 4.6875 39.375 3.42819 39.375 1.875C39.375 1.35727 39.7948 0.9375 40.3125 0.9375C40.8302 0.9375 41.25 1.35727 41.25 1.875C41.25 3.42819 42.5093 4.6875 44.0625 4.6875C44.5802 4.6875 45 5.10727 45 5.625C45 6.14273 44.5802 6.5625 44.0625 6.5625C42.5093 6.5625 41.25 7.82181 41.25 9.375C41.25 9.89273 40.8302 10.3125 40.3125 10.3125ZM39.375 5.625C39.7302 5.89188 40.0456 6.20728 40.3125 6.5625C40.5794 6.20728 40.8948 5.89188 41.25 5.625C40.8948 5.35812 40.5794 5.04272 40.3125 4.6875C40.0456 5.04272 39.7302 5.35812 39.375 5.625Z" fill="#1E1E1E"/>
<path d="M26.25 55.3125H40.3125V57.1875H26.25V55.3125Z" fill="#1E1E1E"/>
<path d="M20.625 55.3125H24.375V57.1875H20.625V55.3125Z" fill="#1E1E1E"/>
</g>
<defs>
<clipPath id="clip0_660_951">
<rect width="60" height="60" fill="white"/>
</clipPath>
</defs>
</svg>
