<svg width="41" height="57" viewBox="0 0 41 57" fill="none" xmlns="http://www.w3.org/2000/svg">
<path d="M25.9125 37.0776C25.9125 34.0542 23.4529 31.5938 20.4288 31.5938C17.4053 31.5938 14.9453 34.0542 14.9453 37.0776V55.2826C16.6891 55.7805 18.5273 56.0532 20.4288 56.0532C22.3309 56.0532 24.1687 55.7805 25.9125 55.2826V37.0776ZM23.0097 52.9545C22.1683 53.0824 21.3052 53.1495 20.4288 53.1495C19.5521 53.1495 18.6902 53.0824 17.8481 52.9545V37.0776C17.8481 35.6547 19.006 34.4978 20.4288 34.4978C21.8522 34.4978 23.0097 35.6548 23.0097 37.0776V52.9545Z" fill="white"/>
<path d="M20.4296 0L0.429688 9.77332V36.049C0.429688 43.502 4.53025 50.0113 10.591 53.4512V29.2282C10.591 23.803 15.0045 19.3893 20.4296 19.3893C25.8545 19.3893 30.2687 23.803 30.2687 29.2282V53.4512C36.3293 50.0111 40.4297 43.5018 40.4297 36.049V9.77332L20.4296 0ZM37.527 36.0488C37.527 40.4175 35.8773 44.4065 33.1724 47.4316V29.2282C33.1724 22.2025 27.456 16.4857 20.4296 16.4857C13.4038 16.4857 7.68783 22.2023 7.68783 29.2282V47.4316C4.98168 44.4065 3.33292 40.4175 3.33292 36.0488V11.5858L20.4296 3.2315L37.527 11.5858V36.0488Z" fill="white"/>
</svg>
