<svg width="134" height="46" viewBox="0 0 134 46" fill="none" xmlns="http://www.w3.org/2000/svg">
<path d="M21.3456 30.4264C21.3456 27.9451 19.327 25.9258 16.845 25.9258C14.3637 25.9258 12.3447 27.9451 12.3447 30.4264V45.3675C13.7759 45.776 15.2845 45.9998 16.845 45.9998C18.4061 45.9998 19.9144 45.776 21.3456 45.3675V30.4264ZM18.9632 43.4568C18.2727 43.5617 17.5643 43.6168 16.845 43.6168C16.1255 43.6168 15.4182 43.5617 14.7271 43.4568V30.4264C14.7271 29.2586 15.6774 28.3092 16.845 28.3092C18.0133 28.3092 18.9632 29.2588 18.9632 30.4264V43.4568Z" fill="#FFB703"/>
<path d="M16.8452 0L0.431152 8.02105V29.5857C0.431152 35.7024 3.79652 41.0447 8.77066 43.8679V23.9879C8.77066 19.5353 12.3928 15.913 16.8452 15.913C21.2975 15.913 24.9203 19.5353 24.9203 23.9879V43.8679C29.8942 41.0446 33.2595 35.7023 33.2595 29.5857V8.02105L16.8452 0ZM30.8773 29.5856C30.8773 33.171 29.5233 36.4448 27.3034 38.9275V23.9879C27.3034 18.2218 22.6119 13.5299 16.8452 13.5299C11.0791 13.5299 6.38797 18.2216 6.38797 23.9879V38.9275C4.16701 36.4448 2.81386 33.171 2.81386 29.5856V9.50856L16.8452 2.65212L30.8773 9.50856V29.5856Z" fill="#FFB703"/>
<path d="M62.6253 23.484L63.1193 22.392C64.5926 22.4267 65.8233 22.6607 66.8113 23.094C67.7993 23.51 68.5359 24.0907 69.0213 24.836C69.5066 25.5813 69.7493 26.4567 69.7493 27.462C69.7493 28.5193 69.5066 29.4727 69.0213 30.322C68.5533 31.154 67.8339 31.8127 66.8633 32.298C65.8926 32.766 64.6879 33 63.2493 33H48.4033L49.8853 22.99L48.4033 13.5H62.7033C64.5059 13.5 65.9099 13.9247 66.9153 14.774C67.9379 15.606 68.4493 16.7673 68.4493 18.258C68.4493 19.09 68.2586 19.8787 67.8773 20.624C67.5133 21.3693 66.8979 22.002 66.0313 22.522C65.1819 23.0247 64.0466 23.3453 62.6253 23.484ZM54.3313 31.648L52.0173 28.892H61.4553C62.1313 28.892 62.6599 28.7273 63.0413 28.398C63.4226 28.0513 63.6133 27.5747 63.6133 26.968C63.6133 26.396 63.4139 25.928 63.0153 25.564C62.6166 25.1827 62.0359 24.992 61.2733 24.992H53.4213V20.988H60.4153C60.9526 20.988 61.4033 20.8233 61.7673 20.494C62.1313 20.1647 62.3133 19.7313 62.3133 19.194C62.3133 18.7433 62.1486 18.3707 61.8193 18.076C61.5073 17.764 61.0566 17.608 60.4673 17.608H52.0433L54.3313 14.852L55.6573 22.99L54.3313 31.648ZM70.9894 18.102H77.0734L77.9574 23.38V33H72.0034V23.198L70.9894 18.102ZM84.7434 17.816V22.886C84.1887 22.782 83.6774 22.7127 83.2094 22.678C82.7587 22.626 82.3427 22.6 81.9614 22.6C81.2507 22.6 80.592 22.7387 79.9854 23.016C79.3787 23.276 78.8847 23.7353 78.5034 24.394C78.1394 25.0353 77.9574 25.928 77.9574 27.072L76.8654 25.72C77.0214 24.6453 77.2294 23.6313 77.4894 22.678C77.7667 21.7073 78.1394 20.8493 78.6074 20.104C79.0754 19.3413 79.656 18.7433 80.3494 18.31C81.06 17.8767 81.9267 17.66 82.9494 17.66C83.2267 17.66 83.5127 17.6773 83.8074 17.712C84.102 17.7293 84.414 17.764 84.7434 17.816ZM86.4941 17.816L89.4841 18.44L92.4481 17.816V33H86.4941V17.816ZM89.4841 16.828C88.4788 16.828 87.6641 16.5767 87.0401 16.074C86.4161 15.5713 86.1041 14.8953 86.1041 14.046C86.1041 13.1793 86.4161 12.4947 87.0401 11.992C87.6641 11.4893 88.4788 11.238 89.4841 11.238C90.5241 11.238 91.3474 11.4893 91.9541 11.992C92.5781 12.4947 92.8901 13.1793 92.8901 14.046C92.8901 14.8953 92.5781 15.5713 91.9541 16.074C91.3474 16.5767 90.5241 16.828 89.4841 16.828Z" fill="white"/>
<path d="M93.4617 33L100.274 24.706V26.214L93.8517 18.102H100.404L104.33 22.964H102.718L106.618 18.102H113.144L106.462 26.292L106.124 24.134L113.534 33H106.774L102.562 27.826H104.278L100.092 33H93.4617ZM122.329 33.442C120.405 33.442 118.715 33.1127 117.259 32.454C115.803 31.7953 114.668 30.8767 113.853 29.698C113.039 28.502 112.631 27.124 112.631 25.564C112.631 23.9693 113.039 22.5827 113.853 21.404C114.668 20.208 115.803 19.2893 117.259 18.648C118.715 17.9893 120.414 17.66 122.355 17.66C124.279 17.66 125.969 17.9893 127.425 18.648C128.881 19.2893 130.008 20.208 130.805 21.404C131.62 22.5827 132.027 23.9693 132.027 25.564C132.027 27.124 131.62 28.502 130.805 29.698C130.008 30.8767 128.881 31.7953 127.425 32.454C125.969 33.1127 124.271 33.442 122.329 33.442ZM122.355 29.074C123.135 29.074 123.794 28.9353 124.331 28.658C124.886 28.3807 125.302 27.982 125.579 27.462C125.874 26.9247 126.021 26.292 126.021 25.564C126.021 24.8187 125.874 24.186 125.579 23.666C125.302 23.1287 124.886 22.7213 124.331 22.444C123.794 22.1667 123.135 22.028 122.355 22.028C121.575 22.028 120.908 22.1667 120.353 22.444C119.799 22.7213 119.374 23.1287 119.079 23.666C118.802 24.186 118.663 24.81 118.663 25.538C118.663 26.2833 118.802 26.9247 119.079 27.462C119.374 27.982 119.799 28.3807 120.353 28.658C120.908 28.9353 121.575 29.074 122.355 29.074Z" fill="#FFB703"/>
</svg>
