<svg width="61" height="61" viewBox="0 0 61 61" fill="none" xmlns="http://www.w3.org/2000/svg">
<g clip-path="url(#clip0_665_1719)">
<path d="M22.4602 38.41C22.1491 37.6641 21.4186 37.1791 20.6104 37.1814C19.8018 37.1837 19.0745 37.6729 18.7676 38.4207L16.1765 44.8458L15.4139 46.6807C14.6936 48.4287 14.8386 50.4134 15.8045 52.0386C16.6899 53.5602 18.2481 54.5674 19.9989 54.7497C20.204 54.7711 20.41 54.7818 20.616 54.7818C20.8215 54.7818 21.0271 54.7711 21.2312 54.7501C22.9829 54.5683 24.5426 53.5611 25.428 52.0386C26.3943 50.4139 26.5389 48.4287 25.8186 46.6807L22.4602 38.41ZM23.7107 51.0156C23.1461 51.9931 22.1487 52.6422 21.0266 52.7622C20.7532 52.7906 20.4774 52.7906 20.204 52.7622C19.0824 52.6418 18.0858 51.9926 17.5213 51.0156C16.8773 49.934 16.7801 48.6119 17.259 47.4475L20.6118 39.1679L23.2108 45.6131L23.9734 47.4475C24.4524 48.6119 24.3552 49.934 23.7107 51.0156Z" fill="#1E1E1E"/>
<path d="M6.62776 34.7979C6.07625 34.7979 5.62891 35.2452 5.62891 35.7972V36.7965C5.62891 37.348 6.07625 37.7953 6.62776 37.7953C7.17973 37.7953 7.62708 37.348 7.62708 36.7965V35.7972C7.62708 35.2452 7.17973 34.7979 6.62776 34.7979Z" fill="#FFB703"/>
<path d="M6.62776 39.7939C6.07625 39.7939 5.62891 40.2413 5.62891 40.7933V53.7825C5.62891 54.3345 6.07625 54.7818 6.62776 54.7818C7.17973 54.7818 7.62708 54.3345 7.62708 53.7825V40.7933C7.62708 40.2413 7.17973 39.7939 6.62776 39.7939Z" fill="#FFB703"/>
<path d="M54.9987 33.2752C52.5508 32.016 50.4331 30.8995 49.6663 28.4409L54.2225 23.8847C54.5973 23.5099 54.808 23.0016 54.808 22.4715C54.808 21.9414 54.5973 21.4331 54.2225 21.0583L47.8644 14.6993C47.3984 14.2333 46.7325 14.0278 46.0848 14.1491L37.3551 1.67837C37.0161 1.19429 36.4808 0.884591 35.8921 0.832974C35.3034 0.781822 34.7226 0.992939 34.3046 1.41099L22.9624 12.7532C22.3337 13.3851 22.1979 14.3565 22.6285 15.1368L24.0965 17.78L21.4539 16.311C20.6731 15.8813 19.7026 16.0176 19.0697 16.6453L16.2062 19.5094C16.0825 19.6363 15.976 19.7795 15.8904 19.9349C11.543 20.1734 0.632812 21.1379 0.632812 24.8059V28.8027C0.665364 29.5225 1.03598 30.1843 1.63213 30.5888V55.9684C1.63818 56.0251 1.64934 56.0809 1.66608 56.1358L1.6684 56.1493C1.68189 56.2386 1.70746 56.3255 1.7442 56.4074C2.94254 59.8359 13.955 60.7767 20.6164 60.7767C27.6679 60.7767 39.6011 59.7243 39.6011 55.7805V38.5062L43.2361 34.8711C45.6942 35.638 46.8111 37.7552 48.0704 40.2035C48.7279 41.6157 49.5496 42.9452 50.5182 44.1649C51.398 45.1884 52.6675 45.7939 54.0161 45.8339C54.0775 45.8357 54.1388 45.8371 54.2002 45.8371C55.5385 45.8357 56.822 45.3047 57.7692 44.3593L59.1554 42.974C60.1454 41.9812 60.6793 40.6225 60.6295 39.2209C60.59 37.8724 59.9841 36.6029 58.961 35.7235C57.7408 34.7544 56.4109 33.9327 54.9987 33.2752ZM52.8103 22.4706L37.2662 38.0151L30.9076 31.656L46.4517 16.1124L52.8103 22.4706ZM3.22062 29.2668C2.99369 29.1547 2.79281 28.9957 2.63191 28.8004L2.63098 28.8008V27.2375C3.02532 27.4309 3.43127 27.5992 3.84653 27.7425L3.89024 27.7573L3.8935 27.7587C7.42529 29.038 13.669 29.802 20.6164 29.802C22.6024 29.802 24.5876 29.7295 26.5295 29.5988L28.9453 31.2901C28.9397 31.3189 28.9411 31.3487 28.9369 31.378C26.1724 31.6611 23.3953 31.802 20.6164 31.8002C12.8706 31.8002 5.7224 30.7609 3.22062 29.2668ZM21.1186 25.8108L23.8738 27.7392C22.7926 27.7801 21.705 27.8034 20.6164 27.8034C16.4443 27.8397 12.2768 27.5053 8.16327 26.8041C12.2768 26.1033 16.4443 25.7689 20.6164 25.8052C20.787 25.808 20.9521 25.8094 21.1181 25.8108H21.1186ZM20.4829 18.0581L26.1831 21.2248C26.5732 21.442 27.0596 21.3736 27.3754 21.0583C27.6906 20.7426 27.759 20.2557 27.5418 19.866L24.3756 14.1659L28.7211 9.82032L35.0858 17.4582C35.3113 17.7419 35.6731 17.8809 36.0302 17.8218C36.3878 17.7628 36.6854 17.5149 36.8077 17.1741C36.9305 16.8332 36.8589 16.4524 36.6208 16.1794L30.1399 8.40156L35.7177 2.8237L44.4451 15.2922L30.0869 29.6504L17.6189 20.9226L20.4829 18.0581ZM15.9002 21.9395C16.0448 22.1846 16.2401 22.3962 16.4731 22.5599L18.2983 23.8368C12.4921 23.9819 7.37553 24.6692 4.2111 25.742C3.62146 25.5657 3.08065 25.2556 2.63098 24.8352V24.8301C2.93557 24.034 7.12349 22.4194 15.9002 21.9395ZM20.6164 58.7785C10.0391 58.7785 3.94697 56.8226 3.6303 55.7694V31.6556C7.07606 32.9767 13.4324 33.7984 20.6164 33.7984C23.6613 33.8025 26.7034 33.6379 29.7297 33.3045L35.8531 39.4278C36.2269 39.804 36.7357 40.0147 37.2662 40.0133C37.3792 40.0119 37.4918 40.0007 37.6029 39.9803V55.7671C37.296 56.8199 31.2034 58.7785 20.6164 58.7785ZM57.7422 41.5613L56.3565 42.9471C55.7562 43.5437 54.9359 43.8655 54.09 43.8366C53.2972 43.8152 52.5499 43.4609 52.0314 42.8606C51.1679 41.7585 50.435 40.5601 49.8472 39.2893C48.6903 37.0395 47.4036 34.5377 44.7948 33.3124L48.1071 29.9996C49.3324 32.6088 51.8338 33.8951 54.084 35.0525C55.3549 35.6403 56.5532 36.3731 57.6553 37.2367C58.2556 37.7552 58.61 38.502 58.6318 39.2948C58.6616 40.1412 58.3398 40.9614 57.7422 41.5613Z" fill="#FFB703"/>
<path d="M35.1465 30.2429L34.4402 30.9493C34.1812 31.2004 34.0779 31.5715 34.1695 31.9202C34.2612 32.269 34.5332 32.5415 34.882 32.6331C35.2307 32.7247 35.6018 32.621 35.8529 32.3624L36.5597 31.6561C36.9415 31.2641 36.9373 30.6386 36.5509 30.2517C36.164 29.8653 35.5381 29.8611 35.1465 30.2429Z" fill="#1E1E1E"/>
<path d="M45.7447 19.6453L37.9734 27.4171C37.7144 27.6682 37.6111 28.0393 37.7028 28.388C37.7944 28.7368 38.0669 29.0093 38.4156 29.1009C38.7644 29.1925 39.1355 29.0888 39.3866 28.8302L47.1579 21.058C47.4165 20.8069 47.5201 20.4358 47.4285 20.087C47.3369 19.7383 47.0644 19.4658 46.7157 19.3746C46.3669 19.283 45.9958 19.3863 45.7447 19.6453Z" fill="#1E1E1E"/>
</g>
<defs>
<clipPath id="clip0_665_1719">
<rect width="60" height="60" fill="white" transform="translate(0.632812 0.82373)"/>
</clipPath>
</defs>
</svg>
