<svg width="60" height="61" viewBox="0 0 60 61" fill="none" xmlns="http://www.w3.org/2000/svg">
<g clip-path="url(#clip0_665_1708)">
<path d="M49.2076 8.71462C47.8978 8.362 46.5283 8.54282 45.3519 9.22368C42.927 10.6272 42.0868 13.7459 43.4787 16.1761C44.1537 17.3545 45.2464 18.1975 46.5556 18.55C46.9933 18.6679 47.4374 18.7262 47.879 18.7262C48.759 18.7262 49.6281 18.4945 50.4115 18.0411C52.8364 16.6375 53.6766 13.5188 52.2847 11.0887C51.6096 9.91016 50.5167 9.06712 49.2076 8.71462ZM49.5309 16.5197C48.7619 16.9645 47.8676 17.0827 47.0125 16.8527C46.1581 16.6227 45.4448 16.0721 45.0038 15.3024C44.0915 13.7095 44.6425 11.6652 46.2322 10.745C46.7444 10.4486 47.3123 10.2972 47.8872 10.2972C48.1753 10.2972 48.4652 10.3352 48.7504 10.412C49.6048 10.642 50.3183 11.1925 50.7592 11.9622C51.6717 13.5553 51.1206 15.5996 49.5309 16.5197Z" fill="#1E1E1E"/>
<path d="M59.3153 16.313L57.6809 14.9047C57.8096 13.9356 57.7951 12.9638 57.6377 12.004L59.1777 10.6826C59.859 10.0979 60.03 9.10842 59.5841 8.32971L58.1702 5.86162C57.7222 5.07975 56.7806 4.73018 55.9315 5.03053L53.8996 5.74877C53.1318 5.1592 52.2873 4.69033 51.3786 4.34908L51.0119 2.35338C50.8493 1.46686 50.0781 0.82373 49.1785 0.82373C49.1784 0.82373 49.1782 0.82373 49.1781 0.82373L46.3384 0.824082C45.4409 0.824316 44.6682 1.46604 44.5015 2.34975L44.0994 4.47975C43.2146 4.85076 42.3636 5.36369 41.6214 5.97377L39.7179 5.30018C38.8709 5.00064 37.9288 5.34869 37.4781 6.12869L36.0521 8.59701C35.6023 9.37572 35.7693 10.366 36.4492 10.9517L38.0836 12.3599C37.9549 13.3289 37.9693 14.3008 38.1268 15.2606L36.5869 16.5821C35.9055 17.1667 35.7346 18.1562 36.1805 18.9349L37.5941 21.4029C38.042 22.1848 38.9832 22.5346 39.833 22.2341L41.8649 21.5159C42.6328 22.1054 43.4773 22.5743 44.3858 22.9156L44.7525 24.9115C44.9154 25.7978 45.6867 26.4409 46.5864 26.4409L49.426 26.4406C50.3236 26.4403 51.0961 25.7986 51.263 24.9148L51.6649 22.7848C52.5493 22.4137 53.4009 21.9008 54.143 21.2908L56.0468 21.9644C56.8938 22.2641 57.8359 21.9155 58.2862 21.1358L59.7123 18.6674C60.1621 17.8888 59.995 16.8987 59.3153 16.313ZM58.1903 17.7881L56.7642 20.2566C56.7373 20.3033 56.6821 20.3244 56.6331 20.3073L54.247 19.463C53.9406 19.3545 53.5993 19.4241 53.3599 19.6437C52.5602 20.3768 51.6146 20.9487 50.5942 21.3161C50.3011 21.4214 50.0858 21.6741 50.028 21.9801L49.5357 24.5889C49.5254 24.6433 49.4793 24.6828 49.4258 24.6828L46.5864 24.6831C46.535 24.6831 46.491 24.6455 46.4814 24.5937L46.0221 22.0937C45.9633 21.7738 45.7324 21.5124 45.4222 21.4144C44.3808 21.0857 43.4333 20.5609 42.6063 19.8547C42.3327 19.6459 42.0449 19.5925 41.7426 19.6946L39.247 20.5766C39.1982 20.5941 39.1455 20.5745 39.1195 20.5292L37.7059 18.0612C37.6785 18.0134 37.6891 17.9522 37.7316 17.9159L39.6579 16.2628C39.9035 16.0521 40.0133 15.7235 39.9441 15.4075C39.7103 14.342 39.6929 13.2538 39.8924 12.173C39.9491 11.8657 39.8385 11.5514 39.6019 11.3476L37.5966 9.61994C37.5558 9.58478 37.5464 9.52443 37.5743 9.47627L39.0002 7.00795C39.0272 6.96131 39.0824 6.9401 39.1315 6.95709L41.5175 7.80143C41.8237 7.90971 42.1651 7.84021 42.4048 7.62061C43.2041 6.8876 44.1498 6.31525 45.1701 5.94834C45.4632 5.84299 45.6786 5.59033 45.7364 5.28436L46.2288 2.67541C46.239 2.62104 46.2853 2.58154 46.3387 2.58154H49.1784C49.2296 2.58154 49.2736 2.61904 49.2831 2.67096L49.7425 5.17092C49.8013 5.49084 50.0321 5.75229 50.3423 5.85025C51.384 6.17908 52.3315 6.70373 53.1582 7.4099C53.3968 7.61346 53.7259 7.67463 54.0219 7.5701L56.5175 6.68791C56.567 6.67057 56.619 6.69025 56.645 6.73549L58.0587 9.20346C58.0861 9.25127 58.0754 9.31244 58.033 9.34877L56.1067 11.0018C55.861 11.2125 55.7512 11.5411 55.8205 11.8572C56.0542 12.9224 56.0716 14.0106 55.8721 15.0917C55.8153 15.3989 55.926 15.7132 56.1626 15.917L58.1679 17.6447C58.2085 17.6797 58.2179 17.7402 58.1903 17.7881Z" fill="#1E1E1E"/>
<path d="M12.7538 32.479C12.7534 30.9179 11.4578 29.5381 9.87312 29.5452L9.37836 29.5439L9.37472 25.1481C9.37343 23.8132 7.29148 24.128 7.61715 25.3726L7.62054 29.5394C6.77902 29.5371 5.93738 29.5349 5.09586 29.5327L5.08332 14.4689C5.0832 14.3132 5.04172 14.1603 4.9632 14.026L2.87023 10.4469L2.86906 5.72604L9.81781 5.75838L9.81898 10.4227L7.7273 14.0182C7.64902 14.1526 7.60789 14.3053 7.60801 14.4608L7.61281 20.2555C7.31867 21.4786 9.37191 21.6948 9.37074 20.4624L9.36605 14.697L11.4576 11.1017C11.5358 10.9674 11.5769 10.8148 11.5769 10.6595L11.5746 1.7024C11.5746 1.24912 11.156 0.82373 10.6931 0.82373L1.98652 0.84916C1.50992 0.850449 1.11101 1.24924 1.11019 1.72607L1.11254 10.6854C1.11254 10.8413 1.15402 10.9943 1.23265 11.1288L3.32574 14.7081L3.33804 29.528L2.84258 29.5267C-0.579416 29.5365 -1.01547 34.8156 2.34968 35.4025L2.32109 52.9238C2.31347 58.2907 10.3749 58.2498 10.3822 52.9445L10.4109 35.3717C11.7434 35.1107 12.7543 33.912 12.7538 32.479ZM2.86859 3.96822L2.86824 2.60439L9.81687 2.584L9.81722 4.00057L2.86859 3.96822ZM6.3623 55.2973C5.10992 55.2973 4.07715 54.1537 4.0789 52.9267L4.1075 35.4421L8.65297 35.4288L8.62437 52.9421C8.62261 54.237 7.60777 55.2937 6.3623 55.2973ZM9.86937 33.6674L2.84351 33.6879C1.42215 33.6879 1.43445 31.2886 2.84281 31.2846L9.87336 31.303C11.2837 31.303 11.2938 33.6632 9.86937 33.6674Z" fill="#FFB703"/>
<path d="M56.2713 50.6412L56.2695 46.7552C56.2669 40.375 53.3858 34.4221 48.365 30.4229C47.8637 30.0234 47.0176 29.9828 46.4746 30.3326C44.5566 29.0305 42.4551 28.0857 40.2086 27.5175C40.2972 27.0459 40.2017 26.397 39.7347 26.1543C36.9386 24.7017 33.6005 24.7028 30.8058 26.1581C30.339 26.4011 30.244 27.0508 30.3331 27.5224C29.3023 27.7839 28.302 28.1246 27.3359 28.543L27.4221 18.1946C31.0031 17.3064 32.8944 14.9927 32.9046 11.4664C32.9159 7.56053 30.5974 3.063 27.5115 1.00495C26.7655 0.702956 26.3099 0.945769 26.1449 1.73362L26.1236 9.03862C26.0915 9.43155 25.8827 9.64788 25.4971 9.68772L21.7904 9.66921C21.444 9.66745 21.1631 9.3719 21.1641 9.01014L21.1853 1.70503C21.0256 0.917644 20.5723 0.671667 19.8253 0.967097C16.7262 2.99514 14.3806 7.47065 14.3692 11.3774C14.359 14.9006 16.2347 17.2317 19.8062 18.1558L19.709 32.7498C16.2306 36.5721 14.2863 41.5284 14.2885 46.7728L14.2901 50.649C10.8244 51.7071 11.4946 57.0126 15.1997 57.0126C17.7922 57.0126 20.2164 57.7834 22.4794 58.9986C24.7518 60.1926 27.3105 60.8237 29.8791 60.8237H29.8858L40.6842 60.8191C43.2553 60.8179 45.8158 60.1848 48.089 58.9879C50.3499 57.7587 52.7728 56.9968 55.3656 56.9957C59.0204 56.9943 59.7946 51.6704 56.2713 50.6412ZM45.736 31.9579L45.7403 42.2654C45.7406 42.7508 46.134 43.1439 46.6192 43.1439H46.6196C47.1051 43.1437 47.4984 42.7501 47.4981 42.2647L47.4938 31.9789C51.9553 35.6403 54.5094 41.0095 54.5118 46.756L54.5136 50.5038H47.5018L47.5001 46.9365C47.4999 46.4511 47.1065 46.0579 46.6212 46.0579C46.6211 46.0579 46.621 46.0579 46.6209 46.0579C46.1354 46.0582 45.7421 46.4518 45.7423 46.9372L45.7439 50.5039H40.2185L40.2096 29.3363C42.1907 29.8892 44.0438 30.7683 45.736 31.9579ZM38.4509 27.4878L38.4606 50.5037H32.1008L32.091 27.4904C34.1153 26.6019 36.4258 26.6009 38.4509 27.4878ZM30.3428 50.5038H24.8176L24.8097 31.9667C26.4827 30.7885 28.3639 29.8928 30.3339 29.3411L30.3428 50.5038ZM16.1272 11.3826C16.135 8.67757 17.5024 5.56061 19.4221 3.58085L19.4064 9.00511C19.4026 10.3341 20.4681 11.4206 21.7818 11.4271L25.4886 11.4457C26.7699 11.4457 27.8779 10.3221 27.8815 9.04378L27.8974 3.62596C29.8058 5.62554 31.1548 8.7562 31.1469 11.4615C31.1385 14.341 29.5822 16.0285 26.3889 16.6202C25.975 16.6968 25.6736 17.0561 25.6701 17.4771L25.5707 29.4135C25.0586 29.6991 24.5585 30.0096 24.0696 30.3421C23.5266 29.9928 22.6803 30.0338 22.1794 30.4339C21.9404 30.6247 21.7078 30.8212 21.4784 31.0208L21.5687 17.461C21.5713 17.0385 21.2732 16.6736 20.8584 16.5926C17.6663 15.9683 16.1187 14.2641 16.1272 11.3826ZM23.0518 31.9891L23.0596 50.5037H16.0478L16.0462 46.7721C16.044 41.0257 18.5934 35.6543 23.0518 31.9891ZM56.4502 54.7778C56.1638 55.0743 55.7783 55.2377 55.3648 55.2379C52.4908 55.2391 49.7827 56.0831 47.27 57.4325C45.2481 58.4971 42.9706 59.0605 40.6835 59.0613L29.8851 59.0659C29.8829 59.0659 29.8812 59.0659 29.8791 59.0659C27.5943 59.0657 25.3182 58.5045 23.2971 57.4425C20.8625 56.1405 18.0107 55.0986 15.1997 55.2548C13.2304 55.2548 13.2687 52.2623 15.2612 52.2615H23.9389H31.222H39.3397H46.6229H55.3008C56.54 52.3354 57.4178 53.7764 56.4502 54.7778Z" fill="#FFB703"/>
</g>
<defs>
<clipPath id="clip0_665_1708">
<rect width="60" height="60" fill="white" transform="translate(0 0.82373)"/>
</clipPath>
</defs>
</svg>
