<svg width="44" height="60" viewBox="0 0 44 60" fill="none" xmlns="http://www.w3.org/2000/svg">
<path d="M27.8731 39.6866C27.8731 36.45 25.2401 33.8162 22.0028 33.8162C18.7662 33.8162 16.1328 36.45 16.1328 39.6866V59.1749C17.9996 59.7078 19.9673 59.9997 22.0028 59.9997C24.039 59.9997 26.0063 59.7078 27.8731 59.1749V39.6866ZM24.7656 56.6827C23.8649 56.8195 22.941 56.8914 22.0028 56.8914C21.0643 56.8914 20.1417 56.8195 19.2402 56.6827V39.6866C19.2402 38.1634 20.4797 36.9249 22.0028 36.9249C23.5266 36.9249 24.7656 38.1635 24.7656 39.6866V56.6827Z" fill="#FFB703"/>
<path d="M22.0014 0L0.591797 10.4622V38.5901C0.591797 46.5684 4.9814 53.5365 11.4694 57.219V31.2885C11.4694 25.4809 16.194 20.7561 22.0014 20.7561C27.8088 20.7561 32.5342 25.4809 32.5342 31.2885V57.219C39.0219 53.5364 43.4114 46.5683 43.4114 38.5901V10.4622L22.0014 0ZM40.3041 38.5899C40.3041 43.2665 38.5381 47.5367 35.6425 50.775V31.2885C35.6425 23.7675 29.5232 17.6477 22.0014 17.6477C14.4804 17.6477 8.36156 23.7674 8.36156 31.2885V50.775C5.46466 47.5367 3.69968 43.2665 3.69968 38.5899V12.4025L22.0014 3.45929L40.3041 12.4025V38.5899Z" fill="#FFB703"/>
</svg>
